<svg id="visual" viewBox="0 0 900 600" width="900" height="600" xmlns="http://www.w3.org/2000/svg" xmlns:xlink="http://www.w3.org/1999/xlink" version="1.1"><path d="M0 451L15 452.3C30 453.7 60 456.3 90 468.5C120 480.7 150 502.3 180 509.7C210 517 240 510 270 506.2C300 502.3 330 501.7 360 495.3C390 489 420 477 450 471.8C480 466.7 510 468.3 540 462.7C570 457 600 444 630 450.5C660 457 690 483 720 489.3C750 495.7 780 482.3 810 471.2C840 460 870 451 885 446.5L900 442L900 601L885 601C870 601 840 601 810 601C780 601 750 601 720 601C690 601 660 601 630 601C600 601 570 601 540 601C510 601 480 601 450 601C420 601 390 601 360 601C330 601 300 601 270 601C240 601 210 601 180 601C150 601 120 601 90 601C60 601 30 601 15 601L0 601Z" fill="#011f00"></path><path d="M0 490L15 501.5C30 513 60 536 90 545.2C120 554.3 150 549.7 180 542C210 534.3 240 523.7 270 521.2C300 518.7 330 524.3 360 521.2C390 518 420 506 450 498.7C480 491.3 510 488.7 540 489.7C570 490.7 600 495.3 630 506.8C660 518.3 690 536.7 720 540.7C750 544.7 780 534.3 810 535.3C840 536.3 870 548.7 885 554.8L900 561L900 601L885 601C870 601 840 601 810 601C780 601 750 601 720 601C690 601 660 601 630 601C600 601 570 601 540 601C510 601 480 601 450 601C420 601 390 601 360 601C330 601 300 601 270 601C240 601 210 601 180 601C150 601 120 601 90 601C60 601 30 601 15 601L0 601Z" fill="#0a1d0a"></path><path d="M0 527L15 528.2C30 529.3 60 531.7 90 541.5C120 551.3 150 568.7 180 570.5C210 572.3 240 558.7 270 549C300 539.3 330 533.7 360 534.7C390 535.7 420 543.3 450 553.3C480 563.3 510 575.7 540 581.8C570 588 600 588 630 577.5C660 567 690 546 720 544.2C750 542.3 780 559.7 810 560.5C840 561.3 870 545.7 885 537.8L900 530L900 601L885 601C870 601 840 601 810 601C780 601 750 601 720 601C690 601 660 601 630 601C600 601 570 601 540 601C510 601 480 601 450 601C420 601 390 601 360 601C330 601 300 601 270 601C240 601 210 601 180 601C150 601 120 601 90 601C60 601 30 601 15 601L0 601Z" fill="#121b12"></path></svg>