<?xml version="1.0" encoding="UTF-8" standalone="no"?>
<!-- Created with Inkscape (http://www.inkscape.org/) -->

<svg
   width="449.78876mm"
   height="99.055489mm"
   viewBox="0 0 449.78876 99.055487"
   version="1.1"
   id="svg1"
   xmlns="http://www.w3.org/2000/svg"
   xmlns:svg="http://www.w3.org/2000/svg">
  <defs
     id="defs1" />
  <g
     id="layer1"
     transform="matrix(1,0,0,0.4743125,109.80208,-16.81635)">
    <g
       id="g12"
       transform="matrix(0.26458333,0,0,0.26458333,-109.80499,-390.7057)">
      <path
         style="fill:#011F00"
         d="m 1700,2400 v -749.616 c -0.726,0.151 -1.462,0.149 -2.214,0.143 -0.831,-0.01 -1.522,-1.242 -1.034,-1.931 0.356,-0.503 0.896,-0.908 1.424,-1.244 0.578,-0.368 1.191,-0.564 1.824,-0.679 v -2.239 c -0.977,0.827 -2.113,0.572 -3.282,0.305 0.101,-2.504 0.163,-2.425 1.896,-3.826 0.464,-0.375 0.977,-0.738 1.386,-1.202 v -3.835 c -0.194,-0.236 -0.414,-0.462 -0.663,-0.68 -1.105,-0.966 -1.56,-1.925 -0.444,-3.331 0.532,-0.671 0.513,-1.922 -0.503,-2.372 -2.286,-1.012 -2.181,-2.324 -0.95,-4.174 0.251,-0.378 0.711,-1.688 -0.914,-2.053 -1.295,-0.292 -1.722,-1.445 -1.072,-3.099 1.42,-3.617 -0.251,-6.639 -2.417,-9.484 0.218,2.924 -1.554,5.531 -1.042,8.429 0.069,0.393 -0.016,1.02 -0.368,0.998 -1.587,-0.097 -1.174,1.025 -1.194,1.866 -0.028,1.198 0.057,2.402 -0.027,3.594 -0.071,1.01 0.212,1.772 0.994,2.395 0.41,0.327 0.8,0.707 1.11,1.129 0.644,0.877 0.167,2.652 -0.855,2.972 -0.598,0.187 -1.289,0.103 -1.936,0.077 -0.454,-0.019 -0.791,0.157 -0.849,0.566 -0.075,0.527 -0.021,1.126 0.753,1.032 0.501,-0.061 0.682,0.315 0.953,0.571 0.896,0.844 0.706,1.92 -0.396,2.498 -0.764,0.4 -1.163,-0.099 -1.633,-0.554 -0.521,-0.505 -0.937,-1.377 -1.898,-0.674 -0.822,0.601 -1.403,1.641 -0.886,2.351 1.066,1.463 0.955,3.089 0.636,4.491 -0.471,2.068 1.622,2.869 1.663,4.553 0,0.133 0.025,0.272 0,0.399 -0.205,0.898 0.226,1.495 0.859,2.044 0.497,0.432 1.048,0.869 1.362,1.427 0.229,0.406 0.206,1.03 0.123,1.527 -0.116,0.692 -0.737,0.52 -1.234,0.569 -1.501,0.15 -2.62,-0.662 -3.729,-1.485 -0.502,-0.372 -0.868,-1.231 -1.579,-0.887 -1.091,0.527 -0.509,1.662 -0.457,2.475 0.033,0.522 0.699,1.03 1.135,1.492 0.41,0.434 0.576,0.917 0.177,1.356 -0.406,0.447 -0.838,0.188 -1.344,-0.075 -0.913,-0.474 -2.454,0.062 -2.35,0.763 0.333,2.242 -0.986,4.663 1.034,6.784 0.833,0.875 1.062,2.499 1.223,3.825 0.141,1.161 -1.124,1.673 -1.826,2.383 -0.877,0.887 -1.266,1.774 -1.334,3.075 -0.09,1.726 -1.06,1.993 -2.808,1.074 -0.209,-0.11 -0.603,0.035 -0.732,-0.107 -0.642,-0.701 -1.741,-1.142 -0.633,-2.54 0.609,-0.769 0.556,-2.058 -0.242,-3.234 -0.647,-0.954 -1.33,-2.138 -1.063,-3.545 0.174,-0.915 -0.659,-1.365 -1.288,-1.751 -0.717,-0.44 -1.985,0.301 -1.774,1.116 0.351,1.357 -0.949,2.083 -0.867,3.283 0.081,1.193 0.045,2.397 0,3.594 -0.016,0.495 0.183,1.006 -0.271,1.487 -1.694,1.795 -1.251,4.078 -1.287,6.243 -0.01,0.406 -0.034,0.779 -0.607,1.175 h -3.301 c -0.159,2.262 0.421,4.567 -1.307,6.352 -0.642,0.664 -0.21,1.511 -0.291,2.269 -0.07,0.658 0.089,1.351 -0.038,1.991 -0.197,0.992 -1.756,1.505 -2.387,0.743 -1.168,-1.41 -2.461,-2.309 -4.36,-1.905 -0.585,0.125 -0.902,-0.323 -1.34,-0.588 -1.028,-0.623 -0.079,-1.902 -0.84,-2.443 -0.682,-0.485 -1.826,0.17 -2.405,-0.87 -0.183,-0.329 -0.476,-0.551 -0.475,-1.007 0,-2.078 -1.538,-2.888 -3.097,-3.38 -1.897,-0.599 -3.401,-1.627 -4.622,-3.156 -0.361,-0.452 -0.776,-0.673 -1.398,-0.491 -0.658,0.617 -0.353,1.483 -0.288,2.208 0.128,1.426 -0.815,2.351 -1.368,3.436 -0.386,0.757 -1.252,1.18 -1.841,0.234 -1.315,-2.11 -4.307,-1.711 -5.51,-3.934 -0.305,-0.563 -0.906,-0.387 -1.407,-0.393 -1.027,-0.011 -2.055,0 -3.289,0 0.08,-1.433 -0.333,-2.7 0.321,-3.935 1.853,0.097 1.138,-1.323 1.226,-2.208 0.138,-1.385 -0.357,-2.865 0.775,-4.089 0.197,-0.213 0.19,-0.995 0,-1.136 -1.24,-0.926 -0.512,-2.632 -1.711,-3.759 -1.182,-1.111 -2.444,-0.531 -3.64,-1.052 -0.113,-0.983 -0.509,-2.068 0.233,-2.923 0.633,-0.729 0.603,-1.613 0.366,-2.214 -1.028,-2.603 -1.44,-5.298 -1.856,-8.042 -0.122,-0.804 -0.387,-1.701 -0.435,-2.574 -0.026,-0.477 -0.209,-0.799 -0.611,-0.803 -0.335,0 -0.71,0.198 -1,0.405 -0.549,0.393 -0.87,0.903 -0.787,1.667 0.144,1.33 0.023,2.503 -1.138,3.534 -1.459,1.295 0.676,2.515 0.368,3.863 -0.029,0.126 0.052,0.337 -0.012,0.388 -1.323,1.067 -1.802,2.46 -1.599,4.13 -2.096,1.312 -1.556,3.434 -1.508,5.344 0.024,0.946 -0.443,1.439 -0.995,1.997 -1.044,1.054 -0.852,2.048 0.159,3.012 0.67,0.638 1.272,1.352 1.963,1.963 0.608,0.537 0.639,1.486 0.363,1.783 -1.246,1.337 -0.424,3.012 -0.938,4.65 -1.128,0 -2.284,-0.014 -3.439,0 -2.022,0.029 -2.316,0.376 -1.601,2.21 0.177,0.453 0.57,0.799 0.522,1.383 -0.19,2.347 -0.022,4.588 1.517,6.569 0.262,0.338 0.372,1.457 -0.345,1.745 -0.504,0.203 -1.263,0.344 -1.834,-0.181 -0.646,-0.595 -1.121,-1.341 -2.169,-1.485 -0.496,-0.068 -0.909,-0.982 -1.621,-0.511 -0.421,0.279 -1.071,0.817 -1.013,1.123 0.312,1.662 -0.796,2.542 -1.819,3.228 -1.092,0.733 0.03,2.434 -1.124,2.634 -2.21,0.383 -0.965,1.999 -0.949,2.811 0.032,1.566 -1.032,2.276 -1.604,3.377 -0.325,0.626 -0.353,1.069 -1.183,1.099 -0.76,0.028 -1.17,-0.362 -1.658,-0.813 -0.595,-0.549 -0.272,-1.228 -0.398,-1.84 -0.145,-0.702 -0.727,-0.578 -1.231,-0.577 -0.518,0 -1.118,-0.072 -1.109,0.696 0.01,0.771 -0.084,1.642 0.226,2.295 2.213,4.663 2.242,4.649 2.125,8.299 -0.049,1.543 -0.698,1.943 -2.195,1.246 -0.776,-0.362 -1.426,-1.047 -2.221,-1.304 -0.888,-0.287 -1.743,-0.012 -2.395,0.843 -0.744,0.977 -0.024,1.473 0.553,1.923 0.886,0.691 1.305,1.88 2.709,2.09 0.716,0.107 1.293,1.087 1.221,2.214 -0.128,1.989 -0.043,3.993 -0.033,5.991 0.01,1.203 -0.594,2.349 -1.448,2.786 -0.903,0.461 -1.406,-0.91 -2.046,-1.501 -0.325,-0.3 -0.303,-0.963 -0.603,-1.319 -0.483,-0.574 -0.924,-1.257 -1.91,-1.1 -1.718,0.272 -3.129,-0.479 -4.536,-1.427 -1.1,-0.741 -2.375,-1.245 -3.623,-1.713 -0.398,-0.149 -1.138,-0.331 -1.422,0.238 -0.214,0.427 -0.171,1.012 -0.149,1.522 0.01,0.213 0.253,0.42 0.398,0.623 1.622,2.26 4.206,3.388 6.123,5.324 0.729,0.736 2.009,0.093 3.024,0.257 0.226,0.037 0.457,0.198 0.635,0.359 0.478,0.433 1.111,0.874 0.791,1.63 -0.248,0.583 -0.909,0.456 -1.391,0.378 -0.964,-0.157 -1.905,-1.493 -2.775,-0.719 -1.193,1.062 -2.454,0.779 -3.663,0.693 -2.166,-0.154 -3.282,0.932 -4.073,2.663 1.153,1.399 2.621,2.268 2.688,4.29 0.035,1.048 1.476,1.332 2.341,0.437 1.069,-1.106 2.281,-1.252 3.482,-0.738 0.574,0.246 1.062,0.555 1.729,0.609 1.248,0.101 1.727,0.919 1.708,2.153 -0.032,2.13 -0.014,4.262 0,6.393 0,0.411 -0.049,0.974 -0.412,0.983 -1.153,0.027 -1.911,1.199 -3.23,0.893 -1.03,-0.239 -1.51,-0.741 -1.889,-1.633 -0.971,-2.285 -1.972,-4.505 -5.138,-4.146 -0.292,0.033 -1.317,-0.531 -1.891,-1.017 -0.964,-0.816 -1.831,-0.682 -2.697,0.217 -0.883,0.916 -1.615,2.027 -3.24,1.821 -0.401,-0.051 -1.422,0.816 -1.18,1.768 0.277,1.087 2.598,2.633 3.326,2.08 2.313,-1.756 3.741,-0.468 5.256,1.147 0.396,0.422 1.149,0.487 1.585,0.887 1.325,1.219 2.5,2.549 2.423,4.568 -0.067,1.757 -0.688,2.171 -2.574,1.636 -0.994,-0.282 -2.042,-0.484 -2.905,0.198 -1.28,1.012 -2.126,0.371 -2.987,-0.574 -0.445,-0.489 -0.876,-1.019 -1.412,-1.381 -0.232,-0.157 -1.026,-0.187 -1.001,0.246 0.107,1.856 -1.23,2.75 -2.269,3.863 -0.524,0.562 -0.425,1.421 -0.165,1.841 0.455,0.736 1.346,0.514 2.068,0.2 0.224,-0.097 0.412,-0.339 0.557,-0.555 0.951,-1.414 2.39,-0.806 3.601,-0.779 0.922,0.021 1.302,0.863 1.654,1.823 0.318,0.867 1.216,1.595 2.147,2.144 1.597,0.943 2.342,2.129 1.619,3.304 -0.936,1.522 -0.722,3.014 -0.662,4.516 0.071,1.782 -1.115,2.511 -2.253,3.316 -0.303,0.215 -0.866,-0.046 -0.91,-0.441 -0.086,-0.781 -0.325,-1.875 0.069,-2.326 1.814,-2.071 0.133,-3.188 -1.111,-4.142 -1.576,-1.21 -3.325,-2.389 -5.526,-1.851 -1.524,0.373 -2.853,-0.57 -4.68,-0.955 0.448,1.62 -0.408,3.11 0.609,4.081 1.425,1.361 2.318,3.636 4.952,3.302 0.99,-0.126 1.781,0.694 1.668,1.705 -0.135,1.21 -1.245,0.488 -1.913,0.63 -0.343,0.073 -0.705,-0.079 -1.08,-0.21 -2.462,-0.864 -2.476,-0.824 -2.473,1.721 0,2.696 0,2.733 2.954,3.274 0.576,0.105 0.883,0.614 1.291,0.686 1.096,0.193 2.167,0.416 3.228,-0.563 1.361,-1.256 2.585,-0.718 2.76,1.011 0.054,0.527 -0.046,1.072 0.019,1.596 0.15,1.204 -0.878,1.992 -0.939,3.259 -0.064,1.329 1.414,2.231 0.818,3.476 -1.49,0.518 -2.839,-0.109 -4.256,0.798 -1.331,0.852 -2.843,-0.162 -3.998,-1.461 -1.104,-1.242 -2.539,-1.036 -3.21,0.174 -0.662,1.196 -0.175,2.93 1.136,4.044 1.4,1.189 1.295,1.72 -0.196,3.031 -1.613,1.419 -2.867,3.29 -5.206,3.695 -0.409,0.071 -0.828,0.639 -0.702,1.263 0.145,0.721 0.707,0.647 1.211,0.594 0.806,-0.084 1.2,0.18 1.163,1.073 -0.05,1.172 -0.012,2.347 -0.012,3.445 -1.073,0.417 -1.789,0.348 -2.637,-0.298 -0.699,-0.532 -1.831,-0.526 -2.346,0.48 -0.718,1.401 -1.664,2.575 -2.81,3.611 0.333,2.193 -1.007,2.222 -2.56,2.104 -0.748,-0.057 -0.712,0.603 -0.667,1.124 0.032,0.37 0.159,0.731 0.23,1.098 0.314,1.635 2.921,2.619 1.975,4.211 -0.727,1.222 -2.387,2.115 -3.525,3.277 -0.982,1.003 -2.242,1.811 -1.887,3.628 0.151,0.772 -1.253,1.492 -1.903,1.001 -0.706,-0.534 -1.133,-1.204 -1.284,-2.261 -0.213,-1.493 -1.408,-2.197 -2.459,-1.662 -0.949,0.483 -2.282,1.199 -0.768,2.591 0.307,2.966 0.725,3.865 -2.691,5.48 -0.434,0.205 -0.8,0.961 -1.28,0.639 -1.139,-0.765 -2.75,-1.025 -3.326,-2.397 -0.579,-1.382 -1.37,-2.286 -2.768,-2.798 -0.552,-0.202 -1.241,-1.017 -0.727,-1.569 1.532,-1.644 0.313,-2.276 -0.911,-2.762 -1.553,-0.616 -1.563,-1.817 -1.552,-3.161 0.01,-0.656 0.655,-0.823 0.782,-1.274 0.429,-1.518 -0.415,-3.475 -1.457,-3.586 -0.66,-0.07 -1.571,1.497 -1.657,3.006 -0.08,1.399 -0.012,2.729 -0.708,4.111 -0.478,0.951 -0.536,2.638 0,3.489 1.124,1.782 0.45,3.482 0.762,5.378 -1.466,0 -2.628,0.031 -3.788,-0.01 -0.951,-0.033 -1.756,0.814 -1.707,1.281 0.195,1.879 -0.921,3.539 -0.806,5.267 0.208,3.116 -0.209,5.659 -3.456,6.926 -0.448,0.175 -0.774,0.708 -1.119,1.107 -0.36,0.417 -0.74,0.704 -1.33,0.616 -1.648,-0.246 -2.999,0.229 -4.116,1.557 -0.222,0.264 -1.037,0.109 -1.072,-0.661 -0.018,-0.399 -0.174,-0.985 0.022,-1.171 2.664,-2.523 0.837,-6.179 2.27,-9.059 0.714,-1.436 -0.585,-2.855 -1.071,-4.278 -0.652,-1.909 -0.999,-3.751 -3.745,-3.261 -0.675,0.12 -1.888,-0.963 -1.33,-1.911 1.505,-2.555 0.639,-4.958 -0.12,-7.367 -0.424,-1.344 -0.766,-2.632 -0.807,-4.073 -0.051,-1.76 -1.053,-3.397 -0.811,-5.274 0.046,-0.358 -0.802,-0.965 -1.345,-1.234 -0.547,-0.271 -0.998,0.277 -1.243,0.701 -0.49,0.847 -1.226,1.779 -1.197,2.653 0.052,1.528 -0.545,2.503 -1.611,3.354 -0.95,0.758 -1.286,1.774 -0.512,2.694 0.629,0.748 0.366,1.476 0.465,2.22 0.113,0.84 -0.245,1.287 -1.082,1.116 -0.981,-0.2 -1.461,0.499 -1.909,1.093 -0.516,0.684 0.27,1.096 0.495,1.648 0.346,0.848 0.302,1.779 -0.608,2.435 -0.988,0.712 -1.077,1.61 -0.566,2.729 0.824,1.805 1.363,3.561 -1.145,4.635 -1.019,0.437 -0.805,1.505 -0.545,2.41 0.494,1.72 1.779,2.634 3.284,3.359 0.515,0.248 0.706,0.843 0.413,1.333 -0.308,0.517 -0.839,0.503 -1.321,0.12 -1.69,-1.342 -3.544,-1.777 -5.715,-1.093 0.09,0.425 0.078,0.833 0.255,1.124 0.885,1.452 1.086,3.136 -0.03,4.272 -1.381,1.405 -1.368,3.127 -0.773,4.321 0.597,1.197 0.414,2.251 0.577,3.365 0.145,0.992 -0.254,1.993 0.616,2.971 0.533,0.599 0.302,1.656 -0.522,2.416 -0.917,0.845 -1.253,-0.35 -1.85,-0.475 -0.913,-0.191 -1.788,-1.227 -2.737,-0.452 -0.958,0.782 -2.082,1.54 -1.849,3.218 0.193,1.394 0.305,2.911 -1.231,3.87 -0.667,0.416 -0.121,1.25 -0.312,1.851 -0.237,0.744 -1.798,0.031 -1.54,1.266 0.395,1.889 -1.026,3.436 -0.821,5.269 0.059,0.527 0.033,1.128 -0.737,1.061 -0.574,-0.05 -1.417,0.385 -1.597,-0.584 -0.183,-0.986 -0.931,-1.682 -0.897,-2.864 0.047,-1.633 -1.374,-2.963 -2.894,-2.88 -1.719,0.094 -3.169,-0.713 -4.676,-1.18 -0.722,-0.224 -1.418,-0.432 -2.159,-0.461 -1.021,-0.039 -1.69,0.916 -1.186,1.777 0.386,0.66 0.944,1.249 1.527,1.747 0.454,0.387 1.097,0.537 1.6,0.877 2.631,1.773 3.344,5.275 6.074,6.976 0.156,0.097 0.213,0.453 0.217,0.69 0.02,1.332 0.022,2.664 0.01,3.995 -0.01,0.774 -0.625,0.845 -1.095,0.686 -1.727,-0.583 -3.444,-1.21 -5.115,-1.938 -0.384,-0.167 -0.933,-0.549 -0.875,-1.199 0.189,-2.129 -1.791,-2.731 -2.806,-3.996 -0.213,-0.266 -0.923,-0.115 -1.154,0.595 -0.649,1.994 -0.719,2.061 -2.258,1.386 -0.475,-0.209 -0.882,-0.44 -1.406,-0.421 -0.529,0.02 -1.051,-0.011 -1.048,0.777 0.011,3.241 -1.359,6.374 -0.777,9.657 0.567,3.195 -0.544,5.61 -3.088,7.509 -1.593,1.189 -2.323,2.595 -1.098,4.669 0.965,1.633 0.135,3.646 -1.048,4.439 -1.667,1.117 -1.817,2.407 -1.885,4.047 -0.043,1.032 0.38,2.139 -0.218,3.094 -1.712,2.737 -2.344,5.767 -2.183,8.965 -2.017,0 -3.831,0.363 -5.387,-0.122 -1.109,-0.346 -2.461,-0.309 -3.424,-1.251 -0.505,-0.494 -1.538,-0.445 -1.785,-0.11 -1.36,1.845 -3.921,1.808 -5.264,3.621 -0.311,0.42 -0.788,0.749 -0.613,1.336 0.196,0.656 0.881,0.342 1.266,0.555 1.314,0.725 1.947,-1.36 3.448,-0.578 0,1.159 0.03,2.461 -0.01,3.76 -0.049,1.694 -0.432,2.223 -2.282,2.326 -1.189,0.066 -2.062,0.394 -2.389,1.491 -0.163,0.546 -0.426,0.902 -0.759,1.286 -0.725,0.835 -1.26,0.437 -1.924,-0.159 -0.602,-0.539 -0.59,-1.161 -0.5,-1.793 0.205,-1.452 -0.654,-2.332 -1.311,-3.474 -0.636,-1.105 -0.298,-2.783 -0.407,-4.208 -0.01,-0.101 -0.178,-0.186 -0.267,-0.284 -1.433,-1.581 -3.095,-2.589 -5.325,-2.408 -2.005,0.163 -2.535,1.793 -3.384,3.195 -0.306,0.505 -0.375,0.954 -0.339,1.457 0.058,0.815 -0.564,1.18 -1.033,1.557 -2.249,1.811 -2.529,2.492 -1.815,4.91 1.124,3.806 -0.249,5.777 -3.951,5.674 -2.23,-0.063 -3.475,-1.214 -2.53,-3.122 0.97,-1.959 -0.219,-3.378 -0.293,-4.994 -0.046,-1.007 -0.538,-2.782 -2.304,-3.102 -0.754,-0.137 -1.583,-0.76 -1.433,-1.565 0.474,-2.542 -0.792,-4.455 -2.036,-6.356 -0.421,-0.643 -0.349,-1.225 -0.364,-1.85 -0.032,-1.331 0.012,-2.664 -0.016,-3.995 -0.029,-1.407 -1.147,-2.011 -2.243,-1.036 -1.519,1.351 -3.426,2.102 -4.908,3.402 -1.899,1.665 -3.857,2.196 -6.146,1.677 -0.506,-3.511 0.604,-5.828 3.838,-7.058 2.423,-0.922 2.87,-3.799 4.703,-5.384 0.582,-0.503 -0.21,-1.673 -1.158,-1.769 -0.519,-0.053 -1.086,0.113 -1.565,-0.038 -2.73,-0.858 -3.222,-2.342 -2,-5.23 0.435,-1.029 0.904,-2.015 1.419,-3.004 0.663,-1.272 -0.199,-2.779 -1.478,-2.923 -0.666,-0.075 -1.156,0.304 -1.74,0.563 -1.675,0.745 -2.262,0.102 -2.151,-1.76 0.047,-0.783 0.415,-1.187 0.871,-1.647 1.21,-1.221 2.411,-2.452 3.624,-3.67 0.564,-0.566 0.39,-1.353 0.21,-1.861 -0.26,-0.733 -1.152,-0.458 -1.743,-0.377 -0.444,0.061 -0.828,0.696 -1.256,0.717 -0.986,0.048 -2.1,0.38 -2.836,-0.737 -0.63,-0.956 -0.662,-2.082 -0.201,-2.935 0.589,-1.089 1.158,-2.22 2.134,-3.132 1.325,-1.238 1.245,-2.84 -0.405,-3.398 -1.386,-0.469 -1.173,-1.145 -1.127,-1.965 0.157,-2.795 -0.01,-5.454 -2.381,-7.399 0.338,-1.037 -1.085,-1.391 -0.905,-2.447 0.061,-0.357 -0.683,-0.449 -0.985,-0.301 -1.95,0.956 -2.486,2.705 -1.562,4.869 0.193,0.452 0.361,0.914 0.56,1.363 0.779,1.758 0.666,2.379 -0.612,3.294 -2.315,1.658 -2.316,1.659 -0.447,3.624 0.365,0.383 0.725,0.774 1.117,1.127 0.816,0.734 0.517,1.336 -0.165,1.937 -0.489,0.431 -0.925,1.237 -1.426,1.273 -0.966,0.069 -1.626,0.718 -1.787,1.291 -0.222,0.794 -0.19,1.742 0.147,2.669 0.744,2.049 0.771,2.297 -1.025,3.232 -1.293,0.673 -0.955,1.614 -0.587,2.169 0.719,1.084 1.818,1.904 2.719,2.872 1.309,1.407 2.295,4.083 1.645,4.318 -1.44,0.519 -2.853,0.583 -4.325,-0.426 -0.955,-0.655 -2.216,-1.22 -3.571,-0.885 -0.476,0.118 -1.229,-0.148 -1.341,0.441 -0.109,0.572 -0.341,1.307 0.234,1.868 1.543,1.502 2.807,3.327 5.189,3.729 0.82,0.138 2.163,0.413 1.625,2 -0.247,0.731 -2.024,1.23 -2.92,0.545 -0.802,-0.613 -1.519,-1.27 -2.478,-1.68 -1.899,-0.812 -2.316,-0.736 -3.276,1.075 -0.798,1.504 -1.289,2.864 -0.093,4.595 0.616,0.892 1.36,2.09 0.365,3.813 -0.812,1.407 -0.656,3.569 0.902,5.403 1.276,1.503 2.35,3.571 1.993,5.917 -0.192,1.26 0.166,2.318 1.577,2.679 1.258,0.322 0.915,1.017 0.304,1.65 -0.984,1.018 -1.901,1.04 -2.952,0.062 -1.214,-1.13 -2.242,-2.473 -3.855,-3.108 -1.472,-0.579 -2.105,-0.198 -2.191,1.328 -0.087,1.565 0.59,3.369 -0.31,4.635 -0.819,1.152 -2.365,1.774 -3.6,2.616 -0.09,0.062 -0.308,-0.049 -0.381,0.017 -0.688,0.623 -0.628,1.487 -0.254,2.118 1.524,2.571 1.703,2.598 0.89,4.325 -0.438,0.93 -0.557,2.198 -0.192,2.607 0.963,1.08 0.652,2.213 0.682,3.342 0.016,0.578 0.145,0.994 0.583,1.366 1.572,1.332 1.191,2.981 0.622,4.6 -1,2.844 -2.427,5.554 -2.008,8.766 0.166,1.275 -1.171,2.924 -2.255,3.236 -1.347,0.387 -2.338,-0.175 -3.223,-1.828 -0.524,-0.978 -1.191,-1.909 -1.524,-2.951 -0.212,-0.662 -0.482,-0.88 -1.035,-0.801 -0.714,0.103 -0.586,0.706 -0.595,1.22 -0.038,2.196 0.489,4.516 -1.941,6.013 -0.838,0.516 -0.551,1.516 -0.01,2.417 0.631,1.047 1.544,2.151 1.132,3.49 -0.446,1.452 1.028,2.289 0.856,3.679 -0.304,2.456 -0.579,5.126 -2.935,6.22 -1.589,0.738 -1.219,1.588 -0.742,2.293 0.38,0.561 0.242,1.299 0.766,1.691 0.804,0.602 0.731,1.601 0.406,2.132 -0.553,0.902 -1.686,0.361 -2.545,0.341 -0.39,-0.01 -0.73,-0.698 -1.153,-0.986 -1.415,-0.964 -2.151,-0.756 -3.477,0.825 -0.811,0.967 -1.575,1.277 -3,0.717 -1.725,-0.677 -2.39,-2.744 -4.323,-2.925 -1.636,-2.526 -5.491,-3.479 -5.129,-7.453 0.024,-0.268 -0.422,-0.652 -0.729,-0.866 -1.236,-0.859 -1.15,-2.339 -0.72,-3.219 1.65,-3.373 0.659,-6.118 -1.94,-8.136 -1.471,-1.142 -0.971,-2.856 -2.027,-4.035 -0.508,-0.567 1.203,-2.271 1.863,-1.769 0.944,0.718 1.912,1.292 2.672,0.344 0.692,-0.863 -1.072,-1.657 -0.668,-2.789 0.171,-0.479 -0.256,-0.728 -0.54,-0.96 -1.889,-1.545 -3.163,-3.71 -5.479,-4.887 -2.124,-1.079 -2.274,-2.078 -1.413,-4.574 0.711,-2.062 0.579,-3.744 -1.201,-5.215 -0.651,-0.538 -1.613,-0.991 -1.599,-2.103 0.023,-1.921 -0.24,-3.867 0.763,-5.675 0.325,-0.586 1.363,-1.02 0.443,-2.2 -1.323,0.25 -2.881,-0.491 -4.311,0.393 -2.404,1.486 -5.326,1.777 -7.65,3.531 -0.428,0.323 -1.129,1.028 -1.97,0.898 -0.49,-0.076 -1.158,0.205 -1.391,-0.386 -0.181,-0.46 -0.156,-1.069 -0.031,-1.562 0.085,-0.335 0.544,-0.553 0.761,-0.875 1.281,-1.903 3.469,-2.44 5.273,-3.521 0.91,-0.545 1.901,-0.805 1.797,-2.085 -0.169,-2.068 0.198,-3.793 1.943,-5.218 1.034,-0.844 0.399,-2.75 -0.897,-3.112 -0.61,-0.17 -1.339,0.106 -1.956,-0.053 -2.482,-0.64 -4.564,-3.142 -3.689,-4.893 0.607,-1.213 0.32,-2.741 1.617,-3.782 0.775,-0.623 1.836,-1.834 1.08,-3.199 -0.827,-1.493 -2.344,-0.687 -3.559,-0.895 -0.487,-0.083 -0.648,0.354 -0.97,0.53 -0.855,0.468 -1.71,0.552 -2.401,-0.312 -0.545,-0.682 -1.553,-1.069 -1.39,-2.26 2.154,-1.784 3.65,-4.371 6.337,-5.63 0.559,-0.262 1.014,-0.86 1.39,-1.394 0.61,-0.867 -0.057,-1.988 -1.083,-2.136 -1.613,-0.232 -2.908,0.469 -4.263,1.167 -1.431,0.737 -3.022,0.325 -3.135,-0.84 -0.252,-2.581 -0.016,-5.154 1.726,-7.231 0.627,-0.747 1.162,-1.73 2.365,-1.892 0.969,-0.131 0.53,-1.024 0.585,-1.605 0.073,-0.782 -0.511,-0.764 -1.039,-0.765 -1.182,0 -2.364,-0.018 -3.545,0.01 -0.431,0.01 -0.793,-0.11 -0.9,-0.515 -0.096,-0.366 -0.053,-0.777 0.327,-1.049 1.366,-0.976 1.897,-2.678 0.971,-3.724 -1.473,-1.665 1.195,-2.587 0.249,-3.88 -0.309,-0.422 -0.683,-1.037 -1.094,-1.097 -1.899,-0.279 -2.19,-1.518 -2.048,-3.11 0.036,-0.41 -0.046,-0.773 -0.413,-1.017 -4.157,1.75 -4.086,1.716 -2.183,5.815 0.642,1.385 1.909,2.854 0.56,4.639 -2.066,-0.509 -3.351,0.567 -4.308,2.279 1.483,1.8 1.483,1.8 3.161,2.45 1.826,0.706 2.183,2.117 0.852,3.546 -0.601,0.646 -1.238,1.074 -2.218,1.341 -2.47,0.673 -3.14,2.426 -2.083,4.723 0.303,0.658 0.616,1.346 1.008,1.991 0.694,1.14 -0.32,2.61 -1.72,2.769 -0.778,0.088 -1.588,-0.075 -2.357,0.044 -0.651,0.101 -0.772,0.989 -0.453,1.187 2.19,1.359 2.747,4.181 5.163,5.469 1.706,0.909 2.913,2.781 2.536,5.326 -2.607,-0.152 -5.106,0.428 -7.379,-1.445 -0.582,-0.48 -1.831,-0.496 -2.739,-0.931 -0.365,-0.175 -1.102,-0.319 -1.435,0.213 -0.352,0.563 -0.378,1.347 -0.016,1.841 0.531,0.724 1.232,1.373 1.985,1.856 0.383,0.246 1.048,0.036 1.008,0.826 -0.113,2.262 1.32,2.632 3.036,2.383 1.279,-0.186 1.896,0.625 2.607,1.367 0.84,0.876 0.697,2.22 -0.366,2.448 -1.474,0.316 -3.315,0.842 -4.402,-0.271 -1.029,-1.053 -2.418,-0.712 -3.332,-1.609 -0.64,-0.629 -1.136,-0.307 -1.627,0.233 -0.445,0.489 -1.267,0.912 -1.317,1.423 -0.101,1.05 -1.272,1.696 -0.903,2.841 0.3,0.932 0.857,1.389 1.862,1.665 0.778,0.213 1.383,0.991 1.329,2.138 -0.077,1.61 0.14,3.249 -2.089,3.463 -1.184,1.993 -3.124,1.483 -4.895,1.512 -0.911,0.015 -1.362,-0.694 -1.69,-1.365 -0.264,-0.54 0.259,-0.94 0.633,-1.306 0.473,-0.462 1.084,-0.863 1.359,-1.428 0.413,-0.851 1.102,-1.799 -0.619,-2.353 -1.338,-0.431 -2.084,-1.621 -1.03,-3.066 0.348,-0.477 0.456,-0.911 0.409,-1.432 -0.056,-0.624 0.319,-1.535 -0.406,-1.78 -0.849,-0.287 -1.995,-0.238 -2.344,0.813 -0.317,0.953 -0.862,1.805 -1.282,2.652 -0.569,1.149 -1.062,1.94 -0.121,3.085 0.738,0.899 -0.13,1.515 -0.713,1.877 -0.923,0.574 -2.513,0.112 -2.903,1.462 -0.547,1.896 1.698,1.363 2.392,2.417 0.937,1.421 0.788,2.792 0.492,4.09 -0.252,1.104 -1.487,1.304 -2.618,1.146 -0.358,-0.05 -0.799,-0.159 -1.136,0.43 0.027,1.879 1.432,3.032 2.67,4.274 0.545,0.546 0.697,1.069 0.089,1.651 -0.54,0.517 -0.971,1.308 -1.914,0.534 -0.463,-0.38 -1.161,-0.481 -1.59,-0.886 -0.818,-0.773 -1.314,-0.345 -1.933,0.252 -0.771,0.743 -0.344,1.198 0.041,1.98 0.405,0.823 0.958,1.462 1.436,2.195 1.076,1.652 0.467,3.377 -1.375,3.897 -0.621,0.175 -1.206,0.6 -1.683,0.656 -1.658,0.194 -1.576,1.361 -1.159,2.218 0.798,1.643 0.753,4.407 3.888,3.598 0.697,-0.18 1.024,0.712 1.47,1.15 0.887,0.871 1.241,3.202 0.503,3.419 -0.761,0.225 -1.22,0.901 -1.971,0.984 -0.796,0.088 -1.091,-0.645 -1.514,-1.089 -1.582,-1.661 -3.335,-2.597 -5.644,-1.88 0,1.283 0,2.349 0,3.414 0,1.301 0.213,2.639 -1.133,3.531 -0.807,0.535 -0.213,1.499 -0.465,2.192 -0.659,1.811 1.46,2.251 1.672,3.73 0.224,1.566 -1.696,2.811 -0.777,4.008 0.981,1.278 0.771,2.531 0.632,3.723 -0.166,1.419 0.971,2.365 0.865,3.674 -0.032,0.392 0.04,0.864 -0.377,1.022 -0.327,0.124 -0.768,0.204 -1.057,-0.193 -1.259,-1.726 -2.886,-2.448 -5.035,-2.173 -2.023,0.259 -3.08,2.247 -1.847,3.921 0.505,0.685 1.028,1.729 2.037,1.663 1.982,-0.129 2.432,1.78 3.676,2.609 0.391,0.26 0.28,0.721 0.155,1.064 -0.063,0.173 -0.413,0.354 -0.618,0.338 -0.759,-0.062 -1.648,0.365 -2.255,-0.22 -1.047,-1.007 -2.133,-0.404 -3.174,-0.495 -0.503,2.182 0.055,3.894 1.017,5.646 0.451,0.82 1.287,1.571 1.179,2.698 -0.049,0.515 0.092,1.076 -0.651,1.184 -1.225,0.178 -2.463,-0.315 -3.683,0.681 -1.168,0.954 -2.22,-0.748 -3.542,-0.761 -2.017,-0.02 -2.391,-0.585 -2.348,-2.608 0.023,-1.112 -0.389,-2.274 0.654,-3.353 0.424,-0.439 0.343,-1.746 -0.209,-2.751 -0.965,0 -2.004,-0.085 -3.024,0.02 -1.477,0.153 -2.057,-1.057 -2.758,-1.887 -0.89,-1.053 0.938,-1.649 0.744,-2.693 1.517,0.065 1.503,-1.453 2.146,-2.24 1.393,-1.707 1.231,-3.617 -0.311,-5.131 -0.708,-0.695 -1.314,-1.419 -2.411,-1.807 -1.413,-0.5 -1.469,-1.518 -0.606,-3.189 0.682,-1.319 1.439,-2.601 2.238,-3.851 0.224,-0.35 0.528,-0.76 0.33,-1.032 -0.534,-0.735 -1.135,-1.458 -1.841,-2.015 -0.663,-0.523 -1.091,0.223 -1.626,0.535 -0.397,0.232 -1.035,-0.01 -1.517,0.133 -1.665,0.491 -2.587,0.276 -3.33,-0.888 -0.611,-0.958 -0.473,-2.619 0.487,-3.505 0.906,-0.836 1.456,-2.09 3.103,-2.103 1.116,-0.01 2.151,-1.169 2.306,-2.271 0.164,-1.167 -1.058,-1.548 -2.059,-1.817 -2.061,-0.553 -1.955,-2.576 -2.529,-4.061 -0.312,-0.808 -0.196,-1.87 -0.026,-2.769 0.351,-1.854 -0.526,-3.21 -1.898,-3.949 -0.916,-0.493 -1.541,-0.794 -1.267,-1.853 0.391,-1.513 -0.769,-2.635 -0.886,-4.061 -0.108,-1.322 -1.418,-1.75 -3.067,-1.52 -1.314,0.184 -0.789,1.213 -0.745,1.835 0.069,0.968 -0.524,1.408 -1.036,1.987 -0.76,0.861 -1.798,1.496 -2.216,2.553 0.736,1.444 1.446,2.742 2.067,4.083 0.655,1.414 0.524,2.308 -0.725,2.958 -1.039,0.541 -2.156,0.768 -2.083,2.294 0.064,1.319 0.04,2.642 0.104,3.96 0.015,0.318 0.033,4.067 -0.097,4.305 -1.009,1.845 -1.041,2.251 -0.806,5.401 0.062,0.829 0.41,1.992 -1.195,1.812 -1.125,-0.126 -2.119,1.561 -3.133,0.652 -0.885,-0.794 -0.254,-2.244 -0.39,-3.394 -0.013,-0.108 -0.146,-0.202 -0.334,-0.447 -1.681,-0.284 -3.185,1.05 -4.944,1.019 -0.36,-0.01 -1.116,0.686 -1.015,1.496 0.217,1.729 -0.256,3.284 -1.222,4.679 -0.745,1.077 -0.481,1.926 0.39,2.739 0.483,0.451 0.888,0.996 1.404,1.398 1.542,1.2 0.958,2.817 0.897,4.337 -2.523,0.648 -1.137,1.995 -0.754,3.397 0.338,1.237 0.198,2.66 0.034,3.971 -0.155,1.237 -1.178,2.044 -2.21,2.456 -0.827,0.33 -1.221,-0.784 -1.799,-1.26 -1.104,-0.91 -1.005,-2.346 -0.443,-3.185 0.954,-1.425 0.233,-2.746 0.603,-4.026 -1.131,-0.404 -2.09,-0.463 -2.883,-0.12 -0.832,0.36 0.068,1.492 -0.57,2.123 -1.112,1.099 -0.477,2.51 -0.498,3.765 -0.025,1.443 0.037,2.715 -1.678,3.27 -0.632,0.204 -0.823,0.932 -0.734,1.662 0.233,1.892 -0.112,3.744 0.68,5.709 0.985,2.445 -1.052,4.541 -3.567,4.082 -1.652,-0.302 -3.015,-1.274 -4.024,-2.634 -0.387,-0.521 -0.415,-1.422 -0.01,-1.824 0.787,-0.774 1.271,-2.098 2.744,-1.915 1.338,0.166 1.146,-0.892 0.987,-1.571 -0.192,-0.82 -0.632,-1.606 -1.082,-2.331 -0.485,-0.781 -2.339,-1.333 -3.151,-0.853 -0.76,0.45 -1.332,1.094 -1.276,2.228 0.116,2.367 0.035,4.745 0.035,7.152 h -5.46 c -0.025,-0.435 -0.13,-0.732 -0.041,-0.948 1.148,-2.8 1.094,-3.269 -0.618,-4.684 -1.234,-1.02 -2.606,-0.869 -4.283,0.836 -1.217,1.237 -2.422,1.059 -3.787,0.798 0.094,-2.499 1.676,-6.762 3.095,-8.116 1.421,-1.356 2.283,-2.561 1.152,-4.718 -0.754,-1.438 -0.828,-3.328 0.879,-4.563 1.263,-0.914 1.401,-1.933 0.415,-3.181 -0.37,-0.468 -0.767,-1.097 -0.767,-1.653 0,-2.704 -1.697,-5.02 -1.623,-7.729 0.034,-1.247 -1.124,-1.695 -1.809,-2.416 -0.59,-0.622 -1.085,0.288 -1.607,0.394 -1.737,0.353 -3.518,0.344 -5.318,0.01 0.445,-1.932 1.393,-3.212 2.59,-4.406 1.028,-1.026 1.038,-2.389 -0.179,-2.895 -1.566,-0.652 -1.527,-1.614 -1.599,-2.95 -0.074,-1.379 0.741,-2.966 -0.555,-4.135 -1.279,-1.153 -1.237,-2.375 -0.574,-3.831 0.904,-1.986 0.635,-3.74 -1.171,-5.179 -1.884,-1.501 -1.848,-1.547 -0.706,-3.28 0.959,-1.456 0.99,-2.643 -0.015,-3.801 -0.84,-0.968 -1.626,-1.753 -1.784,-3.289 -0.153,-1.491 -2.547,-1.731 -3.363,-0.396 -0.629,1.029 -1.396,2.08 -1.256,3.471 0.089,0.885 0.234,1.856 -0.729,2.483 -1.492,0.973 -1.665,2.443 -1.648,4.113 0.024,2.367 -0.945,3.691 -3.191,4.24 -0.792,0.194 -1.43,0.344 -2.001,0.94 -0.336,0.35 -0.429,0.9 -0.259,1.055 0.83,0.756 1.3,1.892 2.659,2.104 2.468,0.385 3.459,1.563 3.615,3.865 0.191,2.818 -1.207,4.219 -3.629,3.017 -1.595,-0.791 -1.906,-0.134 -2.666,0.825 1.753,1.271 2.854,3.132 4.667,4.26 2.163,1.345 2.124,1.674 0.348,3.311 -0.908,0.838 -1.705,1.018 -2.716,0.237 -0.476,-0.369 -1.135,-0.499 -1.599,-0.879 -0.946,-0.775 -1.424,-0.02 -1.903,0.548 -0.673,0.799 -0.759,1.817 0.108,2.401 2.117,1.427 1.93,3.524 1.875,5.63 0,0.133 10e-4,0.266 -10e-4,0.399 -0.026,1.393 -0.935,2.478 -2.345,2.707 -0.512,0.083 -1.049,-0.01 -1.573,0.018 -1.498,0.072 -2.086,0.855 -1.424,2.132 1.071,2.068 2.488,3.889 4.551,5.047 1.866,1.048 3.063,2.816 4.528,4.283 0.486,0.487 0.425,1.46 -0.192,2.121 -0.441,0.472 -0.925,1.157 -1.61,0.726 -3.351,-2.107 -7.528,-2.148 -10.782,-4.484 -0.272,-0.195 -0.686,-0.187 -1.085,-0.286 -1.176,2.184 1.049,3.975 0.555,6.043 -0.064,0.269 0.847,0.992 1.402,1.146 0.733,0.202 1.568,0.111 2.349,0.038 2.248,-0.208 3.86,0.908 5.31,2.462 0.319,0.342 0.391,0.712 0.294,1.066 -0.111,0.406 -0.518,0.44 -0.922,0.494 -2.587,0.341 -4.532,-1.109 -6.507,-2.404 -1.83,-1.2 -2.916,-1.168 -4.323,0.347 -1.174,1.265 -1.183,3.586 0.015,4.887 0.716,0.778 1.544,1.46 2.196,2.287 0.316,0.401 0.217,1.069 -0.404,1.234 -0.492,0.131 -1.047,-0.014 -1.568,0.036 -0.797,0.076 -1.47,1.284 -1.054,1.928 0.281,0.434 0.653,0.85 1.074,1.141 1.253,0.866 1.453,2.089 1.272,3.47 -0.075,0.576 0.307,1.422 -0.775,1.442 -0.64,0.012 -1.216,0.049 -1.769,-0.53 -0.718,-0.753 -0.653,-1.99 -1.645,-2.52 -0.514,-0.274 -1.273,-0.21 -1.273,0.283 0,2.834 -2.241,4.162 -3.642,6.099 -1.888,2.612 -3.594,5.309 -2.138,8.991 0.587,1.485 0.845,3.5 -0.746,5.129 -1.148,1.175 -0.877,2.193 0.506,4.031 0.34,0.452 0.657,0.88 0.348,1.364 -0.328,0.514 -0.894,0.526 -1.313,0.071 -0.757,-0.823 -1.663,-0.859 -2.392,-0.209 -0.826,0.737 -1.89,1.341 -1.738,2.864 0.275,2.747 -0.871,5.109 -2.113,7.493 -0.492,0.943 -0.79,1.549 -1.82,1.279 -0.916,-0.24 -1.576,-0.794 -1.556,-1.915 0.032,-1.731 0.01,-3.463 0.01,-5.194 0,-1.465 -0.215,-2.973 0.058,-4.384 0.303,-1.567 -1.225,-2.526 -0.897,-4.087 0.256,-1.215 -0.723,-1.726 -1.823,-2 -1.467,-0.365 -1.074,1.103 -1.649,1.606 -0.844,0.739 -0.2,1.762 -0.429,2.614 -0.342,1.272 -1.672,1.657 -2.584,0.738 -1.348,-1.359 -2.617,-2.826 -4.552,-3.329 -0.843,-0.219 -1.255,-0.921 -1.746,-1.484 -1.173,-1.345 -0.048,-3.146 -0.649,-4.51 -0.588,-1.334 -2.537,-1.848 -2.303,-3.845 0.154,-1.313 0.029,-2.66 0.029,-3.992 0,-0.533 0.194,-1.416 -0.03,-1.544 -2.443,-1.392 -0.749,-3.372 -0.711,-5.053 0.027,-1.193 -0.38,-1.94 -1.159,-2.747 -0.777,-0.805 -1.604,-1.512 -2.13,-2.68 -0.884,-1.962 -2.754,-1.832 -3.85,-0.012 -1.407,2.336 -1.289,5.331 -3.149,7.468 0.093,3.25 -1.693,5.16 -4.396,6.488 -1.285,0.631 -1.271,1.941 -1.086,3.108 0.186,1.174 1.039,1.538 2.235,1.645 2.119,0.19 2.302,0.499 2.452,2.562 0.036,0.502 0.141,1.063 -0.442,1.388 -1.432,0 -2.884,-0.093 -4.318,0.028 -1.231,0.104 -2.016,2.01 -1.277,3.001 0.47,0.631 1.08,1.163 1.661,1.701 0.43,0.399 0.593,0.839 0.332,1.367 -0.227,0.461 -0.687,0.251 -1.055,0.296 -2.55,0.313 -2.918,0.662 -2.752,3.084 0.124,1.803 0.546,3.424 2.589,4.144 1.768,0.623 1.427,2.338 1.295,3.72 -0.135,1.413 -1.225,2.643 -2.452,2.543 -2.547,-0.208 -2.872,1.352 -3.363,3.192 -0.527,1.977 0.133,3.974 1.99,4.005 3.152,0.053 4.719,2.259 6.631,4.102 0.844,0.813 0.202,1.347 -0.346,1.934 -0.645,0.692 -1.579,0.702 -2.107,0.293 -2.27,-1.754 -5.563,-1.558 -7.404,-4.163 -0.581,-0.822 -3.691,-0.734 -3.906,-0.063 -0.358,1.118 0.147,2.016 1.071,2.729 0.709,0.546 0.603,1.614 1.372,2.238 0.732,0.594 1.328,1.181 2.36,1.022 2.886,-0.444 4.783,1.232 6.59,3.164 0.737,0.788 1.709,1.581 1.123,2.679 -0.576,1.081 -1.869,0.342 -2.824,0.54 -0.597,0.124 -0.887,-0.42 -1.323,-0.618 -1.482,-0.671 -2.912,-1.33 -4.093,-2.55 -1.211,-1.251 -2.753,-1.183 -3.989,0.087 -0.7,0.72 -1.722,1.224 -1.978,2.587 0.291,0.299 0.683,0.625 0.983,1.023 0.874,1.158 2.461,1.31 3.32,2.523 0.776,1.097 0.756,1.618 -0.569,2.529 -0.939,0.645 -1.694,1.511 -1.245,2.577 1.096,2.602 1.189,5.681 3.434,7.743 0.847,0.778 0.48,1.759 0.415,2.604 -0.089,1.164 -1.259,1.43 -2.515,0.92 -0.847,-0.344 -1.461,-0.993 -2.197,-1.387 -1.824,-0.977 -3.509,-2.359 -5.856,-2.096 -2.108,0.236 -3.35,1.031 -3.511,3.188 -0.078,1.043 -0.419,1.712 -1.125,2.348 -0.589,0.529 -1.225,1.052 -1.656,1.702 -0.976,1.474 -1.798,2.945 -0.482,4.789 0.441,0.618 1.275,1.399 0.839,2.422 -1.639,3.847 -2.621,8.011 -5.301,11.358 -0.348,0.435 -0.761,0.773 -1.324,0.59 -0.398,-0.13 -0.424,-0.544 -0.473,-0.953 -0.392,-3.231 -2.137,-6.121 -2.33,-9.398 -0.039,-0.66 -0.514,-0.884 -0.851,-1.242 -0.664,-0.708 -1.396,-0.514 -1.483,0.542 -0.099,1.206 -0.481,1.981 -1.644,2.274 -1.269,0.32 -2.349,-0.562 -3.016,-1.205 -3.395,-3.278 -3.321,-3.451 -7.17,-3.526 -1.113,-0.022 -1.752,-1.045 -2.815,-0.88 -0.715,-1.711 -2.7,-1.208 -3.827,-2.233 -0.189,-0.172 -0.775,-0.124 -1.024,0.05 -0.505,0.352 -0.392,1.102 -0.206,1.451 0.594,1.115 1.21,2.511 2.749,2.307 1.429,-0.189 2.275,0.555 2.927,1.511 0.684,1.002 1.524,2.023 1.375,3.41 -0.029,0.269 -1.532,4.945 -1.555,5.333 -0.099,1.676 -1.375,1.047 -2.013,0.879 -1.083,-0.285 -1.5,-1.939 -0.908,-2.942 0.432,-0.732 1.636,-1.008 1.156,-2.551 -0.885,0 -1.907,-0.084 -2.91,0.021 -1.277,0.134 -1.809,1.224 -1.202,2.415 0.695,1.365 1.428,2.692 1.132,4.323 -0.205,1.13 0.246,1.925 1.039,2.781 0.922,0.995 0.72,2.488 -0.099,3.483 -0.458,0.556 -0.973,0.918 -1.619,0.273 -1.123,-1.121 -2.249,-2.24 -3.334,-3.399 -0.33,-0.353 -0.715,-0.383 -1.055,-0.283 -0.398,0.117 -0.456,0.538 -0.461,0.956 -0.011,1.058 0,1.997 0.934,2.835 0.806,0.72 1.83,2.32 1.332,2.865 -1.292,1.414 -0.104,3.125 -0.933,4.436 -0.953,0.061 -1.844,0.237 -2.901,-0.189 0,-0.851 -0.049,-1.76 0.013,-2.662 0.068,-0.978 -0.055,-1.857 -0.94,-2.403 -1.461,-0.9 -1.528,-2.288 -1.45,-3.798 0.074,-1.438 0.192,-2.86 -1.311,-3.86 -1.405,-0.935 -1.408,-2.383 -0.636,-3.762 0.272,-0.485 0.575,-0.893 0.232,-1.373 -0.984,-1.381 -1.586,-2.829 -1.495,-4.604 0.02,-0.393 -0.814,-1.006 -1.365,-1.21 -0.739,-0.274 -1.441,0.573 -1.467,0.982 -0.097,1.542 -1.17,2.754 -1.107,4.388 0.057,1.477 0.717,3.159 -0.608,4.521 -0.158,0.163 0.012,0.704 0.097,1.053 0.801,3.273 0.883,3.465 -1.744,4.924 -1.247,0.693 -1.746,1.41 -1.603,2.694 0.262,2.356 -1.143,4.451 -0.877,6.871 0.173,1.577 -1.159,2.447 -2.872,2.497 -0.408,0.012 -0.755,-0.064 -1.036,-0.524 0.349,-1.827 -0.087,-3.413 -1.444,-4.92 -0.454,-0.504 -1.85,-1.859 -0.148,-2.885 0.691,-3.068 -0.251,-5.849 -3.084,-7.572 -1.014,-0.617 -0.977,-1.467 -0.732,-1.823 1.431,-2.077 0.314,-4.377 0.768,-6.494 0.238,-1.107 -0.863,-1.485 -0.903,-2.471 -0.032,-0.792 -1.057,-0.475 -1.648,-0.464 -0.745,0.013 -0.642,0.642 -0.641,1.164 0,2.264 0.023,4.528 0,6.792 -0.018,1.429 0.517,3.133 -1.568,3.665 0.22,0.79 -0.772,1.144 -0.738,1.663 0.124,1.874 -0.053,3.485 -2.03,4.313 -0.181,0.076 -0.404,0.446 -0.362,0.617 0.526,2.139 -1.065,3.954 -0.843,6.071 0.166,1.58 0.033,3.193 0.033,4.791 0,1.065 0.204,2.192 -0.082,3.171 -0.153,0.523 -1.162,0.777 -1.764,1.185 -0.206,0.14 -0.513,0.401 -0.492,0.573 0.272,2.298 -1.625,3.597 -2.446,5.375 -0.857,1.856 -1.722,1.776 -3.147,0.104 -0.327,-0.383 -0.627,-0.712 -0.782,-1.277 -0.282,-1.032 -1.242,-1.625 -2.057,-2.238 -0.256,-0.192 -0.893,-0.08 -0.981,0.343 -0.132,0.635 -0.091,1.317 -0.057,1.976 0.043,0.828 -0.861,1.15 -0.902,2.057 -0.03,0.666 -1.107,0.37 -1.72,0.377 -1.442,0.015 -2.145,0.697 -2.117,2.167 0.017,0.932 0.371,2.154 -0.075,2.735 -0.88,1.147 -0.216,2.984 -1.711,3.688 -0.947,0.446 -1.964,0.344 -3.061,-0.169 0.775,-1.644 -0.797,-2.881 -0.667,-4.443 0.176,-2.104 -0.819,-3.676 -2.247,-5.049 -1.041,-1.001 -1.778,-1.958 -1.835,-3.68 -0.042,-1.269 -1.231,-2.493 0.144,-3.738 -1.189,-1.431 -0.495,-3.237 -0.939,-4.803 -0.307,-1.082 -2.062,-1.482 -2.926,-0.724 -0.361,0.317 -0.656,0.715 -0.913,1.197 -0.845,1.58 -1.877,1.978 -3.382,1.643 -2.415,-0.538 -4.03,-0.306 -5.685,0.872 -0.407,0.29 -0.652,0.814 -1.283,0.734 -0.496,-0.063 -1.149,0.166 -1.381,-0.417 -0.182,-0.457 -0.138,-1.023 0.582,-1.198 1.668,-0.407 2.239,-1.863 2.969,-3.203 0.616,-1.13 0.441,-2.338 0.286,-3.441 -0.145,-1.031 -1.338,-0.281 -1.972,-0.618 -0.873,-0.464 -1.702,-2.417 -1.045,-3.482 1.162,-1.886 1.32,-3.101 -0.929,-4.188 -1.054,-0.509 -1.128,-1.656 -0.296,-2.68 0.398,-0.491 1.167,-0.74 1.14,-1.508 -0.021,-0.583 0.377,-1.542 -0.559,-1.606 -1.263,-0.085 -2.352,-0.22 -2.562,-1.73 -0.17,-1.22 0.086,-2.264 1.135,-3.134 0.796,-0.66 0.798,-1.755 -0.03,-2.379 -1.285,-0.968 -1.17,-2.251 -1.106,-3.55 0.107,-2.153 -1.087,-3.599 -2.49,-4.952 -0.659,-0.636 -1.109,-0.211 -1.633,0.27 -1.081,0.992 -0.622,2.142 -0.38,3.251 0.072,0.332 0.74,0.509 0.534,0.953 -0.466,1.006 -1.118,1.929 -1.536,2.952 -0.55,1.345 1.528,2.742 0.678,3.561 -1.655,1.595 -1.082,3.9 -2.295,5.479 -1.174,1.528 -0.377,2.763 0.405,3.98 0.421,0.655 1.09,1.146 1.647,1.711 0.613,0.622 0.293,1.08 -0.151,1.665 -0.589,0.775 -1.344,0.736 -2.104,0.656 -1.903,-0.201 -2.061,-0.243 -2.097,1.412 -0.025,1.179 -0.349,2.454 -1.33,2.491 -1.483,0.056 -0.912,1.347 -1.558,1.865 -0.95,0.762 0.233,1.272 0.44,1.923 0.192,0.603 -0.08,1.346 0.062,1.979 0.54,2.4 -1.083,4.51 -0.818,6.867 0.144,1.276 -0.163,2.392 -1.614,2.63 -0.751,0.124 -0.697,0.572 -0.747,1.101 -0.17,1.787 0.881,4.106 -2.08,4.689 -0.574,0.113 -0.344,0.986 -0.249,1.436 0.729,3.445 -0.918,5.788 -3.378,7.79 -0.204,0.166 -0.362,0.388 -0.561,0.56 -2.775,2.392 -4.003,5.497 -3.936,9.122 0.02,1.048 -0.326,1.751 -1.075,2.36 -1.705,1.388 -1.872,1.714 -0.415,2.959 1.417,1.21 1.532,2.603 1.467,4.215 -0.068,1.667 -2.169,3.233 -3.592,2.346 -0.642,-0.4 -2.213,-0.12 -2.058,-1.834 0.046,-0.509 -1.064,-1.085 -1.569,-1.694 -0.954,-1.152 -2.517,-1.827 -2.331,-3.857 0.078,-0.852 -2.255,-1.712 -3.33,-1.151 -1.404,0.732 0.05,1.432 0.265,2.149 0.497,1.653 1.939,2.993 1.58,4.932 -0.121,0.655 0.529,0.842 0.78,1.27 0.566,0.965 1.576,1.292 2.478,1.661 2.27,0.931 3.512,3.013 5.208,4.577 0.472,0.435 0.326,1.268 0.064,1.84 -0.275,0.602 -0.941,0.222 -1.429,0.302 -0.833,0.135 -1.492,-0.1 -2.038,-0.821 -0.476,-0.628 -1.119,-1.124 -1.649,-1.714 -0.596,-0.664 -1.198,-1.049 -1.901,-0.187 -0.417,0.511 -0.955,0.278 -1.446,0.324 -1.874,0.174 -3.827,-0.466 -5.611,0.758 -0.443,0.305 -1.177,0.072 -1.74,-0.487 -0.705,-0.701 -1.154,-1.862 -2.372,-1.853 -1.208,0.01 -1.584,-0.749 -2.242,-1.659 -1.474,-2.038 -2.1,-4.653 -4.169,-6.269 -0.601,-0.47 -0.451,-0.936 -0.172,-1.661 0.858,-2.227 0.67,-2.615 -1.589,-3.163 -1.032,-0.25 -1.386,-0.489 -0.858,-1.475 0.942,-1.76 1.13,-3.45 -0.554,-4.881 -0.619,-0.527 -0.363,-1.19 -0.469,-1.81 -0.57,-3.333 -2.031,-4.607 -5.277,-4.672 -0.772,-0.016 -1.577,0.045 -2.302,-0.162 -0.41,-0.117 -0.69,-0.707 -1.028,-1.083 2.07,-1.541 -0.347,-3.001 -0.098,-4.561 0.269,-1.686 -0.946,-2.825 -2.047,-3.906 -0.913,-0.897 -2.4,-0.731 -2.362,0.346 0.078,2.194 -2.354,4.224 -0.372,6.515 0.324,0.374 0.201,1.021 -0.413,1.25 -1.482,0.552 -2.944,1.219 -4.475,1.562 -1.399,0.313 -2.096,-0.844 -1.723,-2.355 0.556,-2.255 1.197,-4.452 -1.124,-6.341 -1.555,-1.265 -1.852,-3.257 -1.632,-5.283 0.1,-0.921 0.002,-1.863 0.023,-2.795 0.011,-0.491 -0.235,-0.696 -0.666,-0.764 -0.431,-0.068 -0.923,0.147 -0.878,0.499 0.129,1 -1.186,1.383 -0.854,2.48 0.286,0.947 -0.109,1.783 -0.924,2.39 -1.077,0.802 -0.547,1.418 0.122,2.232 1.216,1.477 1.204,1.975 -0.058,3.249 -1.045,1.055 -1.897,1.822 -0.765,3.51 0.657,0.98 -0.117,1.897 -1.657,2.401 -0.702,0.23 -0.853,0.951 -0.592,1.163 1.02,0.829 0.826,1.908 0.721,2.909 -0.129,1.229 -1.343,1.307 -2.172,1.829 -1.326,0.835 -1.354,2.089 0.102,2.664 1.311,0.518 2.031,1.522 2.979,2.349 1.123,0.98 1.073,1.992 0.001,3.009 -0.66,0.626 -1.406,1.16 -0.398,2.243 0.643,0.692 0.54,1.64 -0.246,2.423 -0.909,0.905 -1.698,0.627 -2.725,0.159 -0.875,-0.399 -1.578,-1.208 -2.683,-1.172 -0.813,0.026 -1.11,0.244 -1.159,1.11 -0.068,1.206 1.155,1.913 0.869,3.278 -0.614,2.925 0.545,5.478 2.128,7.868 0.178,0.268 0.115,0.7 0.174,1.128 -1.338,0.276 -2.41,0.412 -3.653,-0.491 -0.932,-0.678 -2.178,-1.042 -3.251,-1.639 -0.437,-0.244 -0.914,0.056 -0.991,0.792 -0.095,0.908 0.278,1.469 0.871,2.056 0.481,0.476 1.263,0.134 1.664,0.816 0.254,0.433 0.789,0.723 0.637,1.33 -0.172,0.688 -0.758,0.641 -1.245,0.549 -2.308,-0.435 -4.03,0.45 -5.38,2.31 -0.101,0.14 -0.482,0.071 -1.103,0.142 -0.257,-0.332 -0.569,-0.973 -1.074,-1.348 -1.859,-1.385 -2.55,-3.15 -2.252,-5.479 0.226,-1.764 -0.683,-3.176 -1.907,-4.377 -0.461,-0.452 -0.938,-1.193 -1.597,-0.759 -0.583,0.384 -1.256,0.856 -1.218,1.865 0.085,2.261 0.056,4.528 0.017,6.791 -0.031,1.792 -0.386,2.147 -2.19,2.467 -2.575,0.456 -2.58,0.553 -1.905,3.466 0.232,1.002 0.337,2.138 0.108,3.118 -0.257,1.099 -1.216,1.483 -2.413,1.444 -1.215,-0.039 -2.357,-0.065 -3.016,-1.262 -0.147,-0.267 -0.095,-0.715 0.242,-1.078 1.098,-1.182 0.145,-2.95 1.22,-4.307 0.508,-0.641 0.218,-2.015 -0.838,-2.754 -0.638,-0.446 -1.033,-1.327 -1.705,-1.631 -1.74,-0.787 -2.077,-2.18 -2.123,-3.878 -0.024,-0.882 0.335,-1.798 -0.301,-2.666 -1.003,-1.369 -1.392,-2.927 -1.282,-4.666 0.065,-1.032 -0.663,-1.582 -1.67,-1.78 -1.117,-0.22 -2.218,0.676 -2.124,1.222 0.251,1.467 -1.154,2.301 -0.934,3.69 0.251,1.584 0.081,3.045 -1.342,4.279 -0.359,0.311 -1.156,1.311 -0.995,2.315 0.358,2.226 -0.551,4.307 -0.731,6.465 -0.093,1.117 -0.2,2.012 -1.129,2.754 -0.677,0.541 -1.058,1.354 -1.501,2.136 -0.664,1.174 -1.706,2.402 -3.485,1.952 -0.291,-0.074 -0.862,0.139 -0.977,0.38 -0.245,0.513 -0.019,1.115 0.507,1.325 1.465,0.588 2.459,1.521 3.035,3.069 0.946,2.537 0.473,3.524 -2.176,3.984 -0.374,0.065 -0.919,-0.065 -1.103,0.147 -0.517,0.595 -1.838,1.044 -0.76,2.17 0.66,0.689 0.716,1.706 0.301,2.121 -1.056,1.056 -0.54,2.243 -0.621,3.362 -0.183,2.504 -1.086,2.931 -3.43,2.014 -1.301,-0.509 -2.458,-1.293 -2.788,-2.396 -0.391,-1.307 -1.641,-1.822 -2.007,-3.183 -0.275,-1.023 -1.448,-2.261 -3.074,-1.833 -0.956,0.251 -1.37,-0.524 -1.95,-1.021 -0.955,-0.819 -1.689,-1.805 -2.973,-2.356 -1.399,-0.6 -1.346,-2.63 -2.305,-3.734 -0.972,-1.118 0.262,-1.56 0.36,-2.32 0.117,-0.917 0.144,-1.88 -10e-4,-2.789 -0.192,-1.206 -1.766,-1.661 -2.561,-0.674 -0.927,1.151 -2.171,1.814 -3.374,2.422 -0.648,0.328 -2.002,0.551 -2.541,-0.249 -0.714,-1.061 0.572,-1.57 1.147,-2.15 0.996,-1.003 2.216,-1.723 3.699,-1.494 0.981,0.151 1.697,-0.468 1.864,-1.091 0.26,-0.972 0.89,-1.521 1.459,-2.197 0.564,-0.67 0.581,-1.532 0.067,-2.122 -0.412,-0.472 -1.318,-0.414 -1.788,-0.054 -0.999,0.765 -2.22,1.155 -3.077,2.195 -0.812,0.986 -3.654,1.202 -4.23,0.543 -0.556,-0.637 0.398,-2.608 1.78,-3.561 0.286,-0.197 0.843,-0.086 1.03,-0.319 0.631,-0.785 1.455,-1.319 1.895,-2.39 0.986,-2.399 1.135,-2.336 -1.038,-3.811 -1.673,-1.136 -1.711,-1.332 -0.783,-3.428 0.148,-0.335 0.077,-0.849 0.305,-1.057 1.484,-1.354 0.267,-2.039 -0.658,-2.694 -1.848,-1.31 -1.911,-1.289 -1.237,-3.392 0.292,-0.911 0.371,-1.865 0.068,-2.665 -0.324,-0.856 -1.375,-0.165 -2.1,-0.544 -1.797,-0.94 -2.288,-2.159 -1.266,-3.847 0.134,-0.221 0.35,-0.399 0.553,-0.566 0.77,-0.636 0.871,-1.312 0.029,-1.924 -1.612,-1.171 -1.54,-3.266 -0.831,-4.243 1.489,-2.054 -0.835,-2.621 -0.964,-3.947 -0.032,-0.328 -0.522,-0.53 -0.96,-0.465 -0.742,0.109 -0.648,0.664 -0.641,1.186 0.008,0.666 -0.077,1.344 0.018,1.995 0.209,1.423 -0.167,2.252 -1.593,2.929 -1.286,0.61 -1.037,1.604 0.419,2.683 1.496,1.108 1.49,1.584 0.452,2.773 -0.727,0.833 -1.851,-0.084 -2.424,0.786 -0.125,1.812 0.184,3.59 -0.734,5.335 -0.414,0.787 -0.291,2.077 0.795,2.801 0.43,0.286 0.742,0.749 1.126,1.113 0.437,0.414 0.572,0.922 0.153,1.34 -0.203,0.202 -0.845,0.294 -1.015,0.135 -1.376,-1.287 -2.839,-0.551 -4.342,-0.574 0.2,2.246 -0.028,4.062 -1.31,5.714 -0.925,1.192 -0.852,2.538 -0.314,4.07 0.314,0.896 1.465,1.795 0.854,2.805 -1.185,1.959 -0.661,4.049 -0.715,6.086 -0.021,0.797 -0.356,1.428 -0.897,1.597 -1.936,0.606 -2.574,1.875 -2.299,3.803 0.073,0.513 0.114,1.107 -0.43,1.405 -1.22,0.667 -1.05,1.962 -1.378,3.023 -0.476,1.535 -0.932,3.079 -1.323,4.637 -0.454,1.808 -2.169,2.527 -3.116,3.894 -0.169,0.244 -0.229,0.952 0.218,1.033 1.885,0.341 1.49,2.392 2.49,3.281 1.148,1.02 1.186,2.174 1.226,3.524 0.032,1.102 -0.337,1.956 -0.795,2.884 -0.289,0.585 0.372,1.603 -0.965,1.699 -0.928,0.067 -1.847,-0.353 -1.897,-0.991 -0.117,-1.485 -1.832,-1.823 -1.913,-3.224 -0.024,-0.414 -0.31,-0.637 -0.796,-0.626 -0.776,0.017 -0.764,0.533 -0.764,1.07 -0.002,3.729 -0.057,7.46 0.02,11.187 0.046,2.253 -0.092,4.405 -1.885,5.999 -0.752,0.668 -0.424,1.453 -0.489,2.199 -0.045,0.521 0.06,1.06 -0.695,1.144 -0.644,0.072 -0.867,-0.476 -1.262,-0.78 -0.645,-0.496 -0.224,-1.25 -0.441,-1.815 -0.6,-1.566 -2.1,-1.891 -3.355,-0.765 -0.687,0.617 -1.277,1.345 -1.963,1.962 -0.92,0.826 -2.56,0.845 -3.464,0.035 -1.15,-1.03 -1.839,-2.314 -2.277,-3.839 -0.433,-1.51 -2.663,-1.08 -3.203,-2.989 -0.486,-1.716 -2.094,-3.236 -2.162,-5.035 -0.092,-2.442 -2.125,-3.146 -3.164,-4.704 -0.125,-0.187 -0.044,-0.507 -0.085,-0.76 -0.295,-1.812 0.64,-2.839 2.001,-1.903 1.288,0.885 1.871,0.507 2.501,-0.403 0.624,-0.901 0.22,-2.587 -0.988,-2.888 -1.344,-0.334 -1.829,-1.391 -2.693,-2.105 -0.911,-0.753 -1.619,-1.763 -2.542,-2.499 -1.075,-0.857 -2.543,0.198 -3.838,-0.652 0.63,-3.084 -1.394,-5.917 -0.625,-9.229 -0.974,0 -1.608,0.019 -2.241,0 -1.971,-0.07 -2.327,-0.446 -1.477,-2.24 0.442,-0.933 0.811,-1.761 0.1,-2.445 -1.382,-1.331 -1.614,-3.092 -1.965,-4.778 -0.198,-0.952 -0.666,-0.896 -1.328,-0.936 -0.856,-0.051 -1.154,0.306 -1.094,1.147 0.066,0.912 0.044,1.726 -0.745,2.501 -1.056,1.038 -2.083,1.983 -2.587,3.708 -0.435,1.49 -1.718,2.769 -1.388,4.59 0.12,0.657 -0.486,0.873 -0.799,1.259 -0.635,0.78 -1.204,1.603 -1.761,2.433 -1.227,1.825 -2.833,3.554 -5.508,2.772 -0.466,-0.136 -1.045,0.119 -1.396,-0.477 0.902,-2.408 1.473,-4.851 0.014,-7.294 0.503,-1.278 -1.02,-2.056 -0.787,-3.265 0.483,-2.504 -0.646,-4.828 -0.775,-7.262 -0.024,-0.444 -0.141,-0.781 -0.544,-0.882 -0.375,-0.095 -0.728,0.025 -1.034,0.351 -0.449,0.478 -0.58,1.252 -0.893,1.593 -1.257,1.373 -0.977,3.422 -2.185,4.698 -0.942,0.994 -1.125,1.801 -0.424,3.061 0.636,1.145 0.645,2.393 -0.46,3.524 -1.535,1.572 -0.092,4.458 -2.338,5.816 -0.115,0.07 -0.015,0.507 -0.015,0.774 0,0.4 -0.17,0.982 0.027,1.17 1.79,1.709 0.067,2.536 -0.876,3.39 -1.996,1.807 -2.047,1.765 -0.31,3.598 0.905,0.956 1.925,1.824 2.678,2.889 0.25,0.354 0.383,1.359 -0.285,1.795 -0.473,0.308 -1.005,0.081 -1.326,-0.409 -1.365,-2.078 -3.254,-2.232 -5.422,-1.676 0,1.066 0.005,1.993 -0.002,2.92 -0.004,0.641 0.099,1.256 -0.502,1.796 -1.785,1.604 -1.953,3.749 -1.889,6.002 0.028,0.984 0.362,2.028 -0.602,2.95 -1.177,1.125 -2.639,1.958 -3.731,1.135 -1.307,-0.984 -3.77,-1.177 -3.466,-3.591 0.24,-1.901 -0.779,-3.492 -0.818,-5.27 -0.032,-1.48 -0.689,-2.13 -2.119,-2.179 -1.735,-0.06 -0.823,1.256 -1.047,1.977 -0.111,0.356 -0.061,0.829 -0.277,1.074 -2.099,2.387 -1.383,6.227 -4.159,8.25 -0.541,0.394 -0.254,0.978 -0.282,1.474 -0.046,0.796 0.012,1.598 -0.018,2.396 -0.066,1.769 -1.39,3.132 -3.096,3.219 -2.329,0.119 -3.2,-0.418 -3.914,-3.138 -0.243,-0.926 -0.301,-1.999 -1.151,-2.28 -2.387,-0.792 -3.16,-2.4 -2.874,-4.767 0.029,-0.238 -0.016,-0.533 -0.136,-0.735 -1.354,-2.293 -1.609,-4.798 -1.431,-7.392 0.009,-0.133 -0.011,-0.268 0.003,-0.399 0.121,-1.108 -0.576,-1.735 -1.426,-2.032 -0.948,-0.332 -2.073,0.103 -2.27,0.993 -0.566,2.565 -2.95,4.45 -2.596,7.305 0.098,0.785 -0.273,1.287 -0.816,1.653 -1.514,1.019 -1.674,2.505 -1.572,4.149 0.066,1.062 0.034,2.131 0.005,3.196 -0.023,0.826 -1.299,1.557 -1.927,1.029 -1.37,-1.152 -2.722,-2.481 -2.753,-4.396 -0.051,-3.154 -1.613,-5.75 -2.949,-8.354 -0.551,-1.074 -1.173,-1.981 -1.006,-3.172 0.153,-1.096 -0.309,-2.007 -1.135,-2.273 -1.029,-0.332 -2.174,-0.466 -3.208,0.559 -1.538,1.526 -1.562,3.158 -0.725,4.912 0.441,0.925 0.681,1.81 -0.195,2.429 -1.192,0.842 -1.081,1.993 -1.059,3.17 0.013,0.664 0.028,1.263 -0.581,1.764 -1.646,1.355 -0.576,4.077 -2.541,5.354 -0.172,0.112 0.062,0.967 0.199,1.45 0.468,1.653 0.107,2.474 -1.306,2.555 -1.407,0.081 -2.57,-0.146 -3.865,-1.217 -2.198,-1.817 -4.298,-3.709 -6.264,-5.764 -0.682,-0.713 -1.361,-1.102 -2.363,-1.006 -1.432,0.136 -1.987,-0.652 -2.234,-2.053 -0.239,-1.355 -0.988,-2.596 -0.771,-4.077 0.087,-0.595 0.26,-1.303 -0.348,-1.838 -1.899,-1.67 -1.383,-3.69 -0.71,-5.682 0.494,-1.462 0.735,-3.09 -0.822,-3.711 -1.133,-0.452 -1.162,-0.939 -1.282,-1.888 -0.176,-1.387 0.37,-2.589 1.012,-3.574 0.577,-0.885 0.928,-1.776 0.384,-2.444 -0.575,-0.706 -1.894,-0.554 -2.524,-0.158 -0.635,0.399 -1.326,0.74 -1.976,0.991 -1.417,0.549 -2.362,1.767 -3.749,2.393 -0.914,0.412 -1.895,0.867 -2.362,0.136 -0.481,-0.754 -0.512,-2.006 0.253,-2.898 0.325,-0.378 0.839,-0.55 1.226,-0.811 1.676,-1.126 3.341,-2.162 4.044,-4.442 0.864,-2.799 0.941,-2.884 -1.436,-4.49 -0.634,-0.428 -2.325,-0.107 -1.95,-1.862 0.235,-1.101 -0.335,-2.393 0.892,-3.237 0.298,-0.205 0.516,-0.565 0.705,-0.893 1.212,-2.095 0.245,-3.953 -2.192,-4.191 -0.65,-0.063 -1.325,0.072 -1.965,-0.032 -0.675,-0.109 -0.787,-0.856 -0.487,-1.195 1.226,-1.386 2.566,-2.668 3.87,-3.981 0.455,-0.458 1.14,-0.954 0.687,-1.621 -0.399,-0.588 -0.858,-1.408 -1.857,-1.174 -0.612,0.143 -1.336,-0.317 -1.852,0.277 -0.694,0.799 -1.209,0.583 -1.935,-0.045 -0.763,-0.659 -0.836,-1.774 -0.5,-2.113 0.922,-0.931 0.718,-2.554 2.576,-3.063 1.735,-0.475 1.853,-1.769 0.301,-2.847 -1.946,-1.353 -2.478,-3.22 -2.181,-5.496 0.077,-0.595 0.321,-1.36 -0.325,-1.841 -1.461,-1.086 -1.478,-2.875 -1.935,-4.377 -0.334,-1.097 -0.781,-2.647 -1.478,-2.735 -1.737,-0.219 -1.728,1.419 -1.856,2.739 -0.031,0.321 -0.54,0.568 -0.662,0.91 -0.39,1.094 -0.783,1.971 -0.128,3.38 1.216,2.617 0.924,2.732 -1.029,4.806 -0.506,0.538 -1.377,0.879 -1.146,2.404 0.178,0.135 0.751,0.477 1.201,0.942 0.43,0.443 1.126,0.734 1.084,1.868 -0.452,0.458 -1.076,1.108 -1.718,1.739 -1.152,1.131 -2.338,2.179 -0.712,3.927 0.234,0.251 0.51,1.418 -0.902,2.057 -2.29,1.038 -2.047,2.579 0.226,3.867 0.322,0.182 0.602,0.498 0.942,0.579 1.796,0.433 2.632,1.779 3.302,3.354 0.516,1.212 0.062,2.314 -1.199,2.434 -0.998,0.094 -1.913,-0.012 -2.868,-0.712 -1.09,-0.799 -2.52,-1.096 -3.963,-0.873 -0.806,0.124 -1.167,0.784 -1.013,1.644 0.137,0.764 0.727,1.339 1.177,1.453 1.742,0.445 2.684,2.284 4.501,2.507 0.747,0.092 0.787,0.695 0.621,1.161 -0.214,0.599 -0.866,0.361 -1.353,0.452 -0.87,0.162 -1.679,-0.594 -1.954,-0.894 -1.677,-1.831 -4.033,-2.563 -5.865,-4.082 -0.512,-0.424 -0.971,-1.008 -1.618,-0.411 -0.61,0.563 -1.471,1.002 -0.637,2.229 0.816,1.2 0.952,2.872 -0.081,3.961 -1.399,1.475 -1.549,2.604 0.039,3.911 0.853,0.702 0.491,1.33 -0.177,1.929 -0.393,0.352 -0.699,0.995 -1.127,1.08 -1.313,0.259 -1.437,1.023 -1.427,2.192 0.008,0.982 0.518,2.095 -0.457,2.99 -1.7,1.559 -1.579,3.109 0.077,4.67 0.323,0.304 0.268,1.04 0.599,1.315 1.146,0.953 -0.027,1.332 -0.444,1.686 -0.485,0.412 -1.369,0.432 -1.793,0.026 -1.277,-1.224 -2.689,-0.295 -4.395,-0.836 0.774,3.044 -0.622,5.021 -2.152,6.898 -0.517,0.635 -0.954,1.147 -0.861,2.056 0.196,1.906 -1.169,3.285 -1.991,4.732 -0.938,1.651 -2.907,1.955 -4.75,1.676 -1.533,-0.232 -2.439,-1.292 -2.661,-2.82 -0.081,-0.558 -0.155,-1.024 -0.618,-1.345 -1.853,-1.288 -2.467,-3.664 -4.196,-5.013 -1.793,-1.398 -1.519,-4.097 -3.561,-5.363 -0.614,-0.381 -0.548,-1.776 -1.443,-2.117 -1.318,-0.501 -1.561,1.225 -2.471,1.439 -0.74,0.174 -1.287,0.247 -1.121,1.123 0.224,1.183 -0.714,1.634 -1.33,2.237 -1.116,1.093 -2.432,0.958 -3.211,-0.337 -0.437,-0.726 -0.61,-1.61 -1.004,-2.369 -0.35,-0.673 -0.83,-1.161 -1.659,-1.435 -2.255,-0.744 -2.16,-0.823 -2.287,-2.774 -0.094,-1.439 0.16,-2.759 1.055,-4.031 -2.627,-0.904 -4.659,0.145 -6.688,1.038 -0.388,0.171 -0.766,0.303 -1.067,0.147 -0.571,-0.295 -0.526,-1.043 -0.328,-1.403 0.639,-1.16 1.263,-2.452 2.238,-3.268 1.149,-0.962 1.879,-2.008 1.611,-3.41 -0.213,-1.116 -1.3,-1.221 -2.353,-1.532 -2.223,-0.656 -2.478,-2.064 -1.575,-4.431 0.505,-1.326 1.675,-2.715 0.429,-4.271 -1.056,0 -2.106,0.021 -3.156,-0.01 -1.009,-0.026 -1.685,-0.942 -1.123,-1.805 0.681,-1.046 0.943,-2.363 2.051,-3.167 0.564,-0.409 1.395,-0.881 0.932,-1.978 -0.916,-0.559 -1.985,-0.067 -2.985,-0.24 -1.781,-0.309 -2.845,-1.832 -2.398,-3.446 0.063,-0.228 0.422,-0.407 0.424,-0.611 0.017,-1.496 1.541,-1.401 2.217,-2.198 0.475,-0.561 0.868,-1.454 0.163,-1.584 -2.519,-0.467 -1.994,-2.307 -2.025,-3.945 -0.016,-0.799 -0.085,-1.609 0.014,-2.395 0.224,-1.78 -1.057,-2.554 -2.172,-3.374 -0.688,-0.506 -1.622,0.282 -1.808,1.171 -0.401,1.917 1.268,4.437 -1.551,5.668 0.075,1.137 -0.321,2.384 0.88,3.233 0.988,0.699 0.94,1.454 -10e-4,2.211 -0.409,0.329 -0.741,0.754 -1.122,1.12 -1.067,1.025 -2.143,2.001 -0.734,3.593 0.574,0.648 -0.074,1.116 -0.458,1.643 -1.371,1.883 -1.332,2.82 0.113,4.359 0.905,0.964 1.866,1.875 2.767,2.843 0.141,0.152 0.166,0.503 0.115,0.733 -0.092,0.412 -0.389,0.545 -0.835,0.59 -1.702,0.172 -3.103,-0.782 -4.636,-1.218 -1.777,-0.505 -1.766,-0.583 -3.2,0.831 -0.428,0.422 -0.924,0.588 -1.334,0.16 -0.868,-0.906 -2.068,-1.559 -1.839,-3.238 0.205,-1.499 -0.791,-2.61 -1.796,-3.617 -1.505,-1.509 -3.48,-1.426 -4.385,0.495 -0.483,1.025 -1.298,2.259 -1.883,2.276 -2.077,0.058 -2.685,1.44 -3.569,2.873 -0.644,1.044 -1.545,2.248 -3.058,0.68 -0.347,-0.359 -1.447,-0.226 -2.067,0.558 -0.736,0.929 -1.597,1.776 -2.501,2.541 -0.614,0.52 -1.927,-0.168 -1.962,-0.969 -0.061,-1.417 0.301,-2.948 -1.262,-3.875 -0.566,-0.336 -0.346,-0.971 -0.305,-1.455 0.234,-2.749 -2.413,-4.851 -1.664,-7.709 0.017,-0.065 -0.161,-0.201 -0.267,-0.276 -1.061,-0.76 -1.058,-1.884 -1.309,-3.062 -0.668,-3.129 -1.866,-6.117 -3.08,-9.08 -0.436,-1.065 -1.159,-1.749 -2.357,-1.488 -1.159,0.253 -1.632,1.05 -1.599,2.281 0.06,2.263 0.044,4.529 0.002,6.792 -0.014,0.745 0.289,1.549 -0.462,2.205 -1.821,1.59 -2.038,3.739 -1.891,5.992 0.026,0.398 0.018,0.799 0,1.198 -0.021,0.453 -0.261,0.647 -0.722,0.708 -0.911,0.12 -2.717,-0.854 -3.11,-1.963 -0.239,-0.674 -0.37,-1.525 0.383,-2.16 0.603,-0.509 1.172,-1.08 1.656,-1.703 0.188,-0.242 0.217,-0.741 0.114,-1.053 -0.152,-0.46 -0.653,-0.344 -1.024,-0.315 -0.364,0.029 -0.842,0.032 -1.061,0.257 -1.009,1.032 -2.238,0.323 -3.344,0.512 -0.2,0.034 -0.601,-0.143 -0.632,-0.284 -0.074,-0.338 -0.12,-0.842 0.068,-1.051 0.603,-0.67 1.347,-1.781 1.984,-1.745 2.324,0.13 1.947,-2.402 3.315,-3.118 0.063,-0.033 -0.005,-0.526 -0.143,-0.698 -0.132,-0.165 -0.546,-0.335 -0.644,-0.257 -1.851,1.486 -4.214,1.278 -6.271,2.033 -0.686,0.252 -1.053,0.397 -1.66,-0.084 -0.736,-0.584 -0.87,-1.329 -0.685,-2.1 0.108,-0.452 0.612,-0.795 0.89,-1.219 1.03,-1.573 3.041,-1.896 4.141,-3.383 0.526,-0.711 0.885,-1.216 -0.315,-1.69 -1.894,-0.749 -2.685,-2.239 -2.401,-4.324 0.176,-1.296 0.073,-2.146 -1.751,-2.144 -1.359,0 -1.517,-1.529 -1.389,-2.787 0.205,-2.007 0.243,-2.048 -0.962,-3.251 -0.771,-0.77 -0.95,-1.724 -0.36,-2.421 0.827,-0.978 0.535,-2.006 0.477,-2.989 -0.03,-0.518 -0.958,-0.691 -1.219,-0.266 -0.515,0.839 -0.737,1.725 -1.785,2.282 -1.796,0.953 -2.08,1.872 -1.479,3.706 0.623,1.902 1.364,3.767 1.385,5.807 0.022,2.098 0.005,4.196 0.005,6.588 -1.588,-0.525 -2.904,0.244 -4.3,-0.819 -1.473,-1.121 -1.676,-1.38 -0.083,-2.551 1.587,-1.166 1.623,-1.667 0.222,-3.024 -0.285,-0.276 -0.521,-0.622 -0.844,-0.836 -0.874,-0.579 -1.984,0.052 -2.093,1.119 -0.102,0.999 0.478,2.18 -0.596,2.937 -1.506,1.062 -1.36,2.918 -0.844,3.926 0.799,1.559 0.559,3.02 0.642,4.532 0.044,0.799 0.174,1.418 0.711,2.122 1.151,1.511 0.918,3.406 0.884,5.206 -0.021,1.102 -0.845,0.717 -1.414,0.798 -0.799,0.114 -1.175,-0.546 -1.531,-1.03 -0.609,-0.827 -1.473,-0.704 -2.132,-0.509 -0.752,0.221 -0.392,1.128 -0.433,1.746 -0.181,2.699 -1.188,3.739 -3.725,3.788 -0.919,0.018 -1.872,-0.155 -2.75,0.036 -1.764,0.385 -2.773,-0.74 -3.546,-1.888 -0.838,-1.242 -1.042,-2.765 -1.085,-4.353 -0.04,-1.47 0.839,-2.108 1.615,-2.949 0.268,-0.29 0.605,-0.533 0.807,-0.863 0.433,-0.704 -0.21,-1.904 -1.028,-1.963 -0.392,-0.029 -0.794,-0.053 -1.18,0 -1.181,0.174 -2.092,-0.305 -2.469,-1.38 -0.323,-0.919 0.119,-1.739 0.896,-2.401 0.889,-0.758 1.624,-1.547 1.493,-2.991 -0.104,-1.146 -0.554,-1.39 -1.437,-1.216 -2.586,0.51 -3.325,1.454 -3.35,4.153 -0.01,1.065 0.013,2.131 -0.005,3.196 -0.042,2.538 -0.035,2.682 -2.833,2.946 -0.937,0.088 -1.379,1.533 -2.37,0.763 -1.308,-1.016 0.702,-1.452 0.486,-2.326 -0.12,-0.484 0.079,-0.968 -0.29,-1.485 -1.261,-1.766 -0.434,-3.151 0.968,-4.355 1.359,-1.167 2.356,-2.448 1.416,-4.376 -2.679,-0.046 -2.679,-0.046 -3.676,2.394 -0.61,1.492 -2.324,2.035 -3.835,1.163 -0.644,-0.372 -0.898,-1.383 -1.839,-1.277 -1.895,0.214 -1.977,-1.664 -2.075,-2.488 -0.188,-1.587 -0.202,-3.234 0.337,-4.969 0.647,-2.08 1.203,-4.636 -1.142,-6.475 -0.839,-0.658 -1.526,-0.621 -1.885,0.196 -0.705,1.605 -1.937,2.709 -3.112,3.88 -0.644,0.641 -0.956,1.191 -0.162,1.947 0.671,0.639 0.356,1.526 0.281,2.253 -0.125,1.216 -0.978,1.692 -2.181,1.664 -1.345,-0.032 -0.939,-1.03 -0.905,-1.699 0.063,-1.245 -0.465,-1.967 -1.593,-2.309 -0.935,-0.284 -1.16,-1.127 -1.673,-1.826 -1.102,-1.502 -0.518,-3.032 -0.681,-4.533 -0.145,-1.339 -2.725,-4.571 -4.029,-4.817 -0.648,-0.123 -1.202,0.04 -1.744,0.573 -0.561,0.551 -0.404,1.177 -0.577,1.777 -0.64,2.217 -0.894,2.436 -3,2.411 -1.64,-0.019 -2.866,0.025 -3.502,2.113 -0.477,1.565 -2.06,1.573 -3.39,0.169 -0.971,-1.024 -1.911,-1.631 -3.363,-1.485 -1.808,0.183 -3.048,-0.961 -4.231,-2.154 -0.994,-1.002 -1.833,-2.242 -3.595,-1.85 -0.885,0.197 -1.567,-0.669 -1.663,-1.312 -0.141,-0.944 -0.745,-1.391 -1.299,-1.856 -1.388,-1.165 -2.301,-2.462 -1.941,-4.404 0.066,-0.353 0.169,-0.806 -0.268,-1.077 -1.665,-1.03 -1.353,-2.717 -1.262,-4.25 0.078,-1.31 -0.469,-1.607 -1.586,-1.462 -0.751,0.097 -0.809,-0.445 -0.808,-1.005 10e-4,-0.666 -0.016,-1.332 0.006,-1.998 0.014,-0.419 -0.055,-0.835 -0.453,-0.968 -0.557,-0.187 -0.948,0.171 -1.338,0.567 -0.389,0.396 -0.389,1.013 -0.629,1.323 -1.369,1.771 -1.859,3.15 -0.036,5.188 1.675,1.871 1.032,2.915 -1.688,3.249 -1.423,0.175 -2.141,0.7 -2.164,2.141 -0.009,0.53 -0.017,0.901 -0.712,1.135 -2.209,0.744 -2.719,2.49 -2.454,4.666 0.23,1.893 -0.442,3.872 0.746,5.698 0.298,0.458 0.4,1.524 -0.932,1.637 -1.197,0.102 -2.767,0.256 -3.433,1.037 -0.805,0.943 -1.087,1.977 -2.665,2.224 -1.221,0.191 -2.27,1.431 -3.438,2.132 -0.26,0.156 -0.792,0.144 -1.033,-0.029 -0.588,-0.419 -0.257,-2.61 0.418,-3.01 0.814,-0.482 2.083,-0.733 2.39,-1.43 0.879,-1.997 2.08,-4.015 1.55,-6.39 -4.612,-0.274 -4.929,-0.605 -4.625,-4.635 0.039,-0.522 -0.063,-1.06 0.692,-1.141 1.245,-0.134 1.452,-1.144 1.85,-2.119 0.638,-1.559 0.349,-2.487 -1.131,-2.659 -1.255,-0.146 -2.564,0.22 -3.769,-0.232 0,-0.716 0.007,-1.249 -0.002,-1.782 -0.009,-0.521 -0.103,-1.206 0.631,-1.171 2.408,0.113 3.127,-2.122 4.532,-3.346 0.969,-0.844 0.213,-2.816 -1.081,-3.037 -0.733,-0.125 -1.68,-0.164 -2.246,0.206 -0.751,0.49 -1.176,0.794 -1.963,0.077 -0.832,-0.759 -0.984,-1.754 -0.44,-2.417 0.554,-0.675 0.498,-1.689 1.793,-2.123 1.595,-0.535 1.529,-2.071 0.281,-3.433 -0.536,-0.585 -1.097,-1.149 -1.673,-1.693 -0.393,-0.372 -0.739,-0.741 -0.619,-1.341 0.564,-2.837 -1.205,-5.09 -1.976,-7.57 -0.231,-0.742 -0.097,-1.56 -0.489,-2.176 -0.498,-0.783 -1.183,-1.323 -2.277,-1.167 -1.065,0.152 -0.797,0.907 -0.747,1.469 0.078,0.871 -0.615,1.427 -0.92,2.012 -0.592,1.134 -0.798,1.858 -0.208,3.126 0.802,1.724 0.52,3.443 -1.082,4.895 -1.386,1.256 -1.283,1.719 -0.232,3.257 1.15,1.684 1.255,2.081 -0.022,3.259 -1.166,1.076 -1.713,2.188 -1.539,3.79 0.076,0.707 0.4,1.591 -0.197,2.057 -1.933,0.528 -3.185,-0.243 -4.222,-1.577 -0.537,-0.69 -1.098,-1.015 -1.913,-0.25 -0.834,0.783 -1.081,1.484 -0.06,2.222 1.405,1.015 1.065,1.93 -0.12,2.778 -1.358,0.971 -1.814,2.439 -1.179,3.772 0.448,0.942 0.186,1.43 0.123,2.268 -0.165,2.188 -1.229,4.192 -1.061,6.398 0.107,1.405 -0.103,2.426 -1.738,2.99 -1.077,0.371 -2.606,0.891 -2.346,2.793 0.036,0.261 -0.634,1.125 -1.43,1.126 -0.797,0 -1.388,-0.738 -1.443,-1.144 -0.385,-2.842 -3.167,-4.504 -3.43,-7.375 -0.019,-0.204 -0.359,-0.37 -0.533,-0.569 -0.494,-0.563 -1.014,-0.792 -1.625,-0.17 -0.464,0.471 -1.005,0.887 -1.376,1.425 -0.684,0.99 -1.653,0.527 -2.51,0.632 -0.799,0.098 -1.144,-0.592 -1.516,-1.065 -0.532,-0.676 0.076,-1.142 0.505,-1.635 0.738,-0.847 1.753,-1.38 1.746,-2.884 -0.012,-2.634 0.505,-3.334 3.072,-3.927 1.315,-0.303 2.503,-1.137 3.997,-0.935 0.818,0.11 1.899,-1.438 1.509,-1.847 -0.773,-0.81 -1.271,-2.084 -2.638,-2.077 -1.503,0.01 -3.074,-0.34 -4.405,0.781 -0.93,0.784 -2.052,0.892 -3.214,0.809 -1.191,-0.085 -2.156,0.145 -3.123,1.103 -1.062,1.053 -2.556,0.553 -3.11,-0.801 -0.186,-0.454 0.058,-1.084 -0.111,-1.553 -0.319,-0.887 -1.402,-1.118 -2.431,-0.591 -1.63,0.835 -3.199,1.822 -4.893,2.485 -0.853,0.334 -2.175,0.634 -2.772,-0.378 -0.479,-0.812 0.642,-1.292 1.127,-1.856 0.585,-0.679 1.286,-1.179 1.222,-2.31 -0.057,-1.005 0.699,-1.733 1.725,-1.659 0.946,0.069 1.327,-0.656 1.98,-0.991 2.006,-1.03 3.403,-2.73 4.938,-4.284 0.317,-0.322 0.669,-0.434 1.037,-0.338 0.401,0.105 0.489,0.466 0.533,0.896 0.105,1.016 -0.358,2.103 0.396,3.199 1.508,-0.556 2.701,-0.932 2.844,-3.161 0.181,-2.813 2.134,-4.125 4.909,-4.147 1.05,-0.01 2.101,0 3.151,-10e-4 0.5,10e-4 1.166,0.136 1.251,-0.532 0.076,-0.598 0.326,-1.709 -0.338,-1.763 -1.588,-0.128 -2.087,-2.209 -4.078,-1.808 -1.764,0.355 -3.526,0.437 -4.75,1.891 -0.931,1.105 -1.95,1.484 -3.378,1.457 -2.016,-0.039 -3.729,0.318 -4.849,2.649 -1.205,2.507 -5.801,2.808 -7.687,1.066 -0.94,-0.868 -0.852,-1.813 -0.885,-2.848 -0.095,-2.968 -0.204,-3.086 -2.941,-3.305 -0.391,-0.031 -0.803,0.068 -1.178,-0.018 -1.221,-0.278 -1.619,-1.67 -0.769,-2.615 1.242,-1.378 2.472,-2.784 4.631,-2.177 0.244,0.069 0.526,-0.018 0.785,0.014 0.968,0.118 1.447,-0.652 1.794,-1.266 0.39,-0.689 -0.313,-1.232 -0.825,-1.595 -2.049,-1.453 -4.354,-2.583 -4.206,-5.806 0.043,-0.938 -1.417,-1.239 -2.068,-0.424 -1.165,1.458 -3.15,2.239 -3.2,4.679 -0.023,1.154 -2.851,2.529 -3.38,1.985 -0.925,-0.95 -0.432,-2.244 -0.401,-3.365 0.019,-0.672 0.448,-1.482 0.946,-1.958 0.955,-0.913 0.698,-2.052 0.494,-2.957 -0.208,-0.923 -1.341,-0.458 -2.055,-0.455 -0.8,0 -1.357,-0.506 -1.523,-1.013 -0.383,-1.17 -1.48,-2.131 -1.074,-3.552 0.789,-2.755 -1.908,-4.62 -1.844,-7.25 0.013,-0.541 -0.924,-1.101 -1.875,-1.037 -1.385,0.094 -2.785,-0.045 -4.252,-0.087 0.303,-1.776 -0.238,-3.267 1.135,-4.695 1.159,-1.206 1.106,-3.469 0.055,-4.672 -1.149,-1.315 -1.03,-2.573 -1.104,-3.982 -0.053,-1.003 -0.348,-1.953 -0.609,-2.918 -0.786,-2.905 -2.474,-5.377 -3.327,-8.212 -0.106,-0.351 -0.251,-0.7 -0.438,-1.013 -0.698,-1.168 -1.886,-0.854 -2.827,-0.698 -0.867,0.144 -1.473,0.866 -1.483,1.971 -0.008,0.886 0.404,1.887 -0.284,2.662 -2.236,2.516 -1.559,5.98 -2.84,8.8 0.841,3.268 -1.2,5.162 -3.288,7.002 -0.782,0.69 -0.702,2.135 -2.164,2.287 -0.496,0.052 -0.961,0.766 -0.867,1.581 0.301,2.604 -1.076,4.625 -2.525,6.506 -0.716,0.929 -0.668,2.895 -2.337,2.628 -1.679,-0.269 -1.231,-1.933 -1.469,-3.189 -0.461,-2.434 -2.076,-3.819 -3.896,-3.05 -2.013,0.85 -3.579,1.195 -5.029,-0.763 -0.107,-0.144 -0.477,-0.122 -0.725,-0.119 -3.952,0.042 -8.237,-0.957 -10.768,3.551 -0.188,0.335 -0.523,0.6 -0.828,0.849 -0.812,0.662 -1.634,0.667 -2.404,-0.076 -0.571,-0.55 -1.121,-1.123 -1.673,-1.694 -0.439,-0.454 -0.995,-0.246 -1.477,-0.212 -0.589,0.041 -3.077,-1.015 -3.401,-1.525 -0.403,-0.634 -1.294,-0.904 -1.275,-1.867 0.03,-1.465 -0.136,-2.949 0.049,-4.39 0.18,-1.403 -1.509,-2.591 -0.123,-4.21 0.68,-0.796 -0.265,-1.929 -1.307,-2.416 -1.693,-0.791 -1.699,-0.784 -1.174,-2.596 0.293,-1.009 0.382,-1.994 -0.154,-2.964 -1.483,-2.682 -2.026,-4.902 -2.03,-7.546 -10e-4,-1.104 0.04,-2.065 1.066,-2.769 0.869,-0.597 0.674,-1.285 -0.06,-1.918 -0.399,-0.344 -0.73,-0.768 -1.122,-1.121 -0.932,-0.838 -1.555,-2.081 -3.179,-1.9 -1.755,0.195 -3.422,-0.148 -4.968,1.483 -1.499,1.581 -3.411,3.159 -6.001,2.545 -0.907,-0.215 -1.373,0.433 -2.005,0.899 -1.813,1.337 -3.038,0.78 -3.406,-1.442 -0.331,-2.005 -0.718,-2.43 -2.182,-1.5 -1.185,0.752 -1.662,0.274 -2.213,-0.451 -0.61,-0.802 -0.559,-1.619 0.172,-2.448 0.742,-0.843 1.901,-1.043 2.359,-0.417 1.169,1.598 2.686,1.475 4.216,1.33 1.094,-0.103 1.704,0.439 2.299,1.161 0.371,0.451 0.802,0.605 1.652,0.245 0,-2.744 -0.011,-5.635 0.012,-8.526 0.004,-0.483 -0.198,-0.802 -0.599,-0.807 -0.335,-0.01 -0.711,0.195 -1.003,0.401 -1.234,0.875 -1.87,2.96 -3.587,2.684 -2.407,-0.388 -5.173,-0.074 -6.528,-3.271 -0.938,-2.212 -1.41,-2.201 0.084,-3.589 1.989,-1.849 3.038,-3.658 1.443,-6.403 -0.681,-1.173 0.51,-2.589 1.931,-2.614 0.608,-0.011 1.321,-0.334 1.844,0.279 0.704,0.826 1.285,0.564 1.916,-0.124 0.419,-0.457 0.761,-1.048 1.565,-1.007 0.385,0.019 0.605,-0.365 0.57,-0.835 -0.035,-0.472 -0.25,-0.734 -0.698,-0.728 -2.056,0.025 -2.871,-1.148 -3.298,-3.062 -0.375,-1.678 -1.627,-2.396 -2.787,-1.555 -1.761,1.277 -3.957,1.329 -5.684,2.507 -0.45,0.307 -1.017,0.8 -1.315,0.433 -0.548,-0.673 -1.934,-0.677 -1.859,-1.073 0.393,-2.07 -1.723,-2.942 -1.919,-4.893 -0.244,-2.425 -1.131,-2.453 -2.869,-0.842 -1.002,0.929 -1.657,2.478 -3.481,2.12 -0.34,-0.067 -0.438,0.459 -0.551,0.854 -0.329,1.154 -2.537,2.947 -3.583,3.116 -1.166,0.19 -1.782,-0.15 -2.198,-1.394 -0.197,-0.587 -0.563,-1.132 -0.482,-1.783 0.155,-1.242 -0.235,-2.443 0.689,-3.732 0.962,-1.342 -0.869,-2.843 -0.686,-4.396 0.148,-1.256 -0.373,-1.658 -1.534,-1.498 -0.708,0.098 -0.898,-0.381 -0.833,-0.968 0.083,-0.75 -0.147,-1.477 0.353,-2.256 0.853,-1.328 0.739,-2.703 -0.582,-3.783 -0.781,-0.639 -0.816,-1.263 -0.027,-1.936 0.4,-0.342 0.779,-0.721 1.114,-1.129 1.452,-1.772 0.921,-3.564 -1.359,-4.279 -1.075,-0.338 -2.005,-0.768 -1.827,-2.012 0.138,-0.964 -0.541,-1.65 -0.899,-2.003 -1.707,-1.689 -1.523,-3.734 -1.528,-5.8 -0.001,-0.2 -0.266,-0.4 -0.409,-0.6 -0.874,0.13 -1.814,-0.314 -2.631,0.288 -0.103,2.933 -0.085,2.949 -1.963,5.183 -0.476,0.566 -0.476,0.927 -0.214,1.676 1.185,3.391 -0.11,7.88 -2.642,10.061 -0.882,0.76 -1.392,0.246 -1.901,-0.379 -0.224,-0.275 -0.491,-0.698 -0.435,-0.994 0.568,-2.976 -1.202,-6.167 1.362,-9.065 1.209,-1.367 -0.357,-3.071 -1.661,-4.304 -1.003,-0.948 -1.826,-1.167 -3.008,-0.371 -1.622,1.093 -3.399,1.562 -5.387,0.783 0,-1.6 -0.327,-3.285 0.092,-4.75 0.421,-1.469 1.586,-2.719 2.435,-4.081 -0.456,-0.224 -0.665,-0.369 -0.895,-0.433 -1.306,-0.368 -3.319,0.9 -3.845,-0.634 -0.469,-1.367 1.652,-2.099 2.501,-3.221 0.336,-0.443 0.631,-0.805 0.384,-1.603 -1.137,-0.237 -2.374,-0.272 -3.626,0.059 -0.337,2.32 -2.141,1.346 -3.3,1.333 -1.54,-0.018 -2.149,-1.924 -1.167,-3.195 1.303,-1.685 1.998,-3.755 1.909,-5.66 -0.012,-0.266 0.002,-0.533 -0.002,-0.799 -0.029,-1.733 -0.001,-1.761 -1.731,-3.589 -0.504,-0.532 -0.698,-1.05 -0.636,-1.743 0.072,-0.804 0.025,-1.536 -0.729,-2.098 -1.284,-0.956 -1.17,-2.382 -0.502,-3.477 0.713,-1.168 0.268,-2.294 0.428,-3.423 0.028,-0.2 -0.175,-0.605 -0.314,-0.625 -0.341,-0.051 -0.753,-0.021 -1.049,0.141 -0.332,0.181 -0.721,0.494 -0.825,0.832 -1.006,3.276 -3.805,5.509 -4.907,8.73 -0.156,0.455 -0.581,1.061 -0.975,1.144 -1.551,0.327 -2.242,1.672 -3.279,2.596 -1.28,1.139 -1.602,1.16 -3.252,0 -1.611,-1.135 -2.172,-1.272 -3.19,0.23 -1.303,1.92 -2.469,4.036 -2.645,6.455 -0.106,1.46 -0.745,1.94 -2.129,2.214 -1.682,0.333 -2.072,-0.915 -2.312,-1.83 -0.441,-1.685 -1.39,-3.249 -1.149,-5.148 0.141,-1.114 0.328,-2.346 -0.279,-3.518 -1.209,0.103 -2.003,1.011 -3.01,1.399 -1.257,0.484 -2.173,0.957 -2.255,2.629 -0.056,1.132 -1.154,2.154 -2.26,2.344 -1.531,0.263 -3.141,0.104 -4.715,0.051 -0.87,-0.03 -1.346,-0.717 -1.592,-1.456 -0.298,-0.896 0.207,-4.261 0.775,-5.652 0.501,-1.227 1.227,-2.197 2.648,-2.507 0.436,-0.095 0.782,-0.656 1.148,-1.025 1.633,-1.65 1.143,-5.151 -0.958,-5.972 -1.043,-0.408 -2.432,-0.521 -3.367,0.09 -0.938,0.613 0.317,1.251 0.506,1.908 0.277,0.961 -0.455,1.654 -0.731,2.475 -0.64,1.907 -2.224,2.273 -3.78,2.522 -1.549,0.248 -3.07,0.229 -3.49,-2.008 -0.149,-0.792 -1.128,-1.368 -2.226,-1.178 -0.453,0.079 -0.945,0.01 -1.475,-0.199 -2.071,-0.805 -2.898,-0.602 -3.141,1.416 -0.443,3.679 -2.951,5.769 -5.043,8.32 -1.594,1.943 -3.907,1.461 -5.733,2.457 -0.491,0.268 -0.903,-0.217 -1.343,-0.531 -2.131,-1.52 -2.79,-1.551 -4.547,0.225 -1.285,1.299 -2.947,1.89 -4.459,2.641 -1.839,0.914 -3.317,-0.288 -3.401,-2.313 -0.033,-0.798 -0.015,-1.598 -0.003,-2.397 0.013,-0.808 -0.67,-1.158 -1.145,-1.489 -0.665,-0.464 -1.164,0.19 -1.592,0.676 -0.163,0.185 -0.282,0.412 -0.417,0.622 -1.877,2.918 -3.537,3.397 -6.59,1.899 -2.153,-1.056 -2.721,-1.682 -1.846,-3.755 0.469,-1.111 0.039,-1.382 -0.454,-1.714 -0.639,-0.431 -1.835,-0.577 -2.04,0.154 -0.893,3.181 -3.001,1.767 -4.917,1.835 0.842,-2.862 1.854,-5.256 3.765,-7.171 0.434,-0.435 1.252,-0.776 1.02,-1.538 -0.247,-0.811 -0.651,-2.109 -1.172,-2.21 -2.893,-0.564 -2.079,-2.871 -1.791,-4.368 0.175,-0.909 0.778,-1.908 0.594,-2.888 -0.304,-1.62 -1.684,-0.528 -2.535,-0.823 -1.239,-0.43 -1.536,-1.63 -0.744,-2.662 0.847,-1.105 2.41,-1.657 2.6,-3.306 -0.145,-0.13 -0.232,-0.275 -0.342,-0.296 -0.372,-0.069 -0.752,-0.089 -1.129,-0.136 -3.341,-0.413 -4.313,-2.535 -2.325,-5.358 0.846,-1.201 0.847,-2.14 -0.227,-3.015 -0.71,-0.578 -0.899,-1.263 -0.766,-2.083 0.336,-2.073 -1.242,-3.485 -1.751,-5.265 -0.04,-0.14 -0.425,-0.219 -0.66,-0.253 -0.477,-0.07 -0.719,0.224 -0.74,0.665 -0.03,0.664 -0.003,1.331 -0.009,1.997 -0.012,1.429 0.229,2.887 -1.282,3.881 -0.736,0.484 -0.163,1.068 0.255,1.627 1.517,2.029 1.49,2.05 -0.189,3.844 -0.181,0.193 -0.371,0.376 -0.556,0.566 -0.874,0.895 -2.195,1.609 -0.648,3.146 0.351,0.349 -0.051,1.358 -0.477,2.125 -0.618,1.111 -0.532,2.506 0.687,3.489 0.511,0.412 0.933,0.936 1.401,1.402 0.458,0.455 1.173,0.95 0.743,1.618 -0.381,0.591 -0.843,1.344 -1.842,1.223 -0.952,-0.115 -1.708,0.118 -2.308,-1.267 -0.395,-0.913 -2.313,-0.282 -3.467,-0.321 -0.119,0.375 -0.221,0.523 -0.184,0.605 0.411,0.894 0.789,1.81 1.288,2.653 0.399,0.675 0.436,1.031 -0.308,1.533 -2.723,1.839 -2.586,1.852 -1.933,5.075 0.297,1.467 0.618,3.119 -0.308,4.543 -1.636,2.518 -3.294,5.023 -5.026,7.473 -0.541,0.765 -1.402,1.296 -0.279,2.254 0.223,0.191 0.245,0.71 0.24,1.076 -0.015,1.251 -1.036,2.063 -2.322,1.935 -1.324,-0.131 -0.766,-1.159 -0.79,-1.808 -0.053,-1.414 -0.34,-2.948 1.224,-3.875 0.566,-0.335 0.28,-0.958 0.317,-1.455 0.047,-0.638 -0.152,-1.32 0.521,-1.785 1.54,-1.064 1.13,-2.053 -0.1,-3.063 -1.245,-1.022 -1.918,-2.123 -0.486,-3.608 0.255,-0.265 0.253,-0.894 0.564,-1.348 0.55,-0.802 0.575,-1.714 -0.279,-2.419 -0.586,-0.483 -0.923,-1.29 -2.114,-1.486 -0.569,0.576 -1.753,1.209 -1.926,2.055 -0.53,2.583 -2.241,1.939 -3.804,1.961 -0.646,-1.832 -0.223,-3.188 1.214,-4.239 1.377,-1.007 1.958,-2.35 1.701,-4.084 -0.166,-1.118 0.36,-2.339 -0.747,-3.323 -0.233,-0.207 -0.176,-1.167 0.224,-1.829 0.925,-1.529 1.074,-3.547 0.05,-4.728 -1.142,-1.318 -1.052,-2.565 -1.124,-3.977 -0.031,-0.605 0.34,-1.491 -0.478,-1.702 -0.69,-0.178 -1.509,-0.243 -2.116,0.561 -0.785,1.039 -1.993,1.498 -3.201,1.761 -1.045,0.227 -2.069,0.075 -2.724,-1.019 -0.579,-0.967 0.594,-1.304 0.638,-2.011 0.057,-0.929 0.701,-1.524 1.368,-1.684 1.286,-0.308 1.86,-1.372 2.655,-2.169 1.138,-1.14 0.986,-2.198 -0.26,-3.27 -2.538,-2.183 -2.722,-2.437 -1.326,-5.047 0.638,-1.193 0.394,-1.733 -0.485,-2.392 -0.399,-0.299 -0.627,-0.822 -1.268,-0.785 -0.256,0.015 -0.959,-0.13 -0.406,-0.599 1.095,-0.93 -0.014,-2.354 0.822,-3.263 1.375,-1.495 -0.031,-1.537 -0.912,-1.948 -1.144,-0.534 -1.992,-1.21 -1.804,-2.789 0.116,-0.974 0.269,-1.757 1.042,-2.379 0.856,-0.689 0.976,-1.857 0.288,-2.376 -1.434,-1.083 -1.46,-2.501 -1.223,-3.893 0.228,-1.341 -0.79,-2.107 -1.006,-3.216 -0.037,-0.188 -0.195,-0.351 -0.387,-0.507 V 2400 Z m -231.943,-513.91 c 0.784,-0.797 2.544,-0.895 3.44,-0.097 1.224,1.089 2.178,2.476 3.815,3.087 1.038,0.387 0.814,1.763 1.563,2.515 0.418,0.42 -1.373,2.493 -2.312,2.67 -0.377,0.071 -0.778,0.012 -1.27,0.012 -1.259,0.378 -2.162,-0.425 -2.816,-1.396 -0.776,-1.151 -1.481,-2.318 -2.479,-3.317 -0.856,-0.857 -0.718,-2.684 0.059,-3.474 z m -74.136,31.951 c 2.038,-0.82 3.731,-2.536 6.191,-2.201 0.893,0.122 1.567,1.052 1.171,1.834 -0.169,0.335 -0.411,0.688 -0.713,0.889 -1.766,1.173 -3.173,2.832 -5.171,3.71 -1.749,0.769 -2.605,0.497 -2.764,-1.194 -0.037,-0.396 0,-0.798 0,-1.197 -0.138,-1.031 0.257,-1.425 1.291,-1.841 z m -105.201,11.402 c 0.752,-0.015 1.703,-0.204 1.482,1.091 -0.227,1.328 0.358,2.241 1.309,3.022 0.726,0.596 1.326,1.259 1.061,2.327 -0.013,0.743 0.186,1.343 -1.013,1.656 -1.058,0.276 -1.854,1.215 -3.032,0.22 -0.722,-0.61 -0.976,-1.498 -0.625,-2.072 0.973,-1.592 0.994,-2.971 0,-4.558 -0.251,-0.405 -0.509,-1.661 0.813,-1.686 z m -165.58,119.465 c 2.121,-2.37 2.125,-2.445 0.44,-5.138 -0.4,-0.64 -0.348,-1.207 -0.378,-1.83 -0.024,-0.505 -0.17,-1.249 0.397,-1.366 0.558,-0.115 1.284,-0.348 1.834,0.218 1.781,1.832 4.05,3.385 3.302,6.564 -0.177,0.75 -0.026,1.58 -0.026,2.373 0,1.587 -0.091,3.18 0.033,4.757 0.079,1.014 -0.553,1.569 -1.151,1.867 -0.786,0.393 -1.623,0.216 -2.401,-0.56 -1.375,-1.371 -1.826,-3.224 -2.736,-4.827 -0.364,-0.641 0.093,-1.395 0.686,-2.058 z m -69.22,53.224 h 3.619 c 0.106,0.309 0.29,0.561 0.25,0.771 -0.381,2.045 0.48,3.47 1.959,4.792 0.899,0.804 2.048,1.454 2.05,3.123 0,3.529 -0.27,4.309 -4.025,6.344 -0.564,0.306 -0.918,1.634 -2.219,0.421 -0.191,-1.896 -0.646,-4.135 1.714,-5.875 0.942,-0.694 0.748,-2.525 -0.076,-3.466 -0.607,-0.694 -1.202,-1.459 -1.956,-1.951 -1.473,-0.963 -1.456,-2.357 -1.316,-4.159 z m -114.294,54.647 c 1.043,-0.748 1.525,-0.356 2.471,0.802 0.909,1.112 0.76,2.189 0.543,3.271 -0.088,0.44 -0.656,1.14 -1.667,1.166 -0.75,-0.604 -1.813,-1.241 -2.074,-2.388 -0.217,-0.95 -0.346,-2.082 0.727,-2.851 z m -595.487,-14.745 c 1.063,0.618 2.325,0.908 3.113,2.007 0.37,0.516 1.016,0.906 0.629,1.643 -0.308,0.585 -0.94,0.232 -1.389,0.325 -1.658,-0.068 -3.373,-1.901 -3.218,-3.481 0.039,-0.396 0.508,-0.702 0.865,-0.494 z m -144.59,-68.817 c 1.36,-1.532 3.126,-2.717 3.905,-4.748 0.087,-0.227 0.389,-0.568 0.539,-0.542 2.646,0.454 3.891,-2.046 5.909,-2.915 0.595,-0.257 1.104,-0.556 1.64,-0.514 1.29,-0.028 3.196,1.249 3.264,2.337 0.144,2.305 -0.172,4.619 0.768,6.875 0.412,0.988 -0.558,1.674 -1.438,1.939 -0.603,0.182 -1.302,0.027 -1.958,0.036 -1.883,0.025 -1.881,0.03 -3.505,1.853 -0.264,0.296 -0.555,0.566 -0.833,0.849 -0.762,0.774 -1.768,0.897 -2.37,0.111 -1.476,-1.925 -3.83,-2.297 -5.676,-3.551 -1.021,-0.696 -0.828,-1.074 -0.245,-1.73 z m -53.235,-54.625 c 0.291,-1.188 0.585,-2.396 1.075,-3.506 0.415,-0.942 1.45,-1.246 2.301,-0.883 0.754,0.322 1.666,0.891 1.364,1.78 -0.145,1.497 -2.453,3.648 -3.711,3.763 -0.869,0.079 -1.222,-0.367 -1.029,-1.154 z M 118.42,1984.41 c 0.133,-2.407 2.044,-3.874 2.814,-5.924 0.201,-0.533 1.175,-0.489 1.226,-0.031 0.128,1.142 0.638,2.106 0.984,2.99 0.01,0.662 0.086,1.178 -0.402,1.557 -1.077,0.838 -1.697,2.214 -3.237,2.548 -0.512,0.111 -0.957,0.993 -1.593,0.462 -0.67,-0.557 0.181,-1.114 0.208,-1.602 z m -14.781,0.618 c 0.425,-1.132 1.232,-2.222 0.927,-3.612 -0.171,-0.78 0.615,-1.15 1.086,-1.497 0.661,-0.489 1.15,0.138 1.596,0.609 1.648,1.738 2.693,3.373 1.391,6.068 -0.825,1.708 -1.416,3.853 -0.948,5.971 0.109,0.495 -0.208,0.693 -0.634,0.809 -0.559,0.01 -1.038,-0.143 -0.931,-0.858 0.213,-1.423 -0.432,-2.104 -1.618,-2.892 -1.972,-1.313 -1.838,-2.018 -0.869,-4.598 z M 3.512,1950.011 c 0.793,-0.874 1.571,-1.673 2.953,-1.423 0.884,0.16 1.82,0.059 2.73,0.018 0.481,-0.021 0.686,0.211 0.809,0.615 0.001,0.131 0.043,0.282 -0.005,0.392 -0.743,1.68 -4.065,3.426 -5.688,3 -1.242,-0.325 -1.653,-1.659 -0.799,-2.602 z"
         id="path11" />
      <path
         style="fill:#011F00"
         d="m 1071.197,2082.546 c 0.012,0.526 0.067,1.084 -0.685,1.127 -3.034,0.175 -4.584,2.182 -5.595,4.763 -0.362,0.924 -0.79,1.606 -1.839,1.625 -0.611,0.01 -1.376,0.186 -1.331,-0.861 0.029,-0.665 0,-1.249 -0.58,-1.76 -0.435,-0.383 -0.332,-1.225 0.155,-1.284 2.167,-0.264 1.28,-1.579 0.773,-2.457 -0.678,-1.174 -0.988,-2.507 -1.823,-3.635 -0.472,-0.639 -0.213,-1.749 0.676,-2.394 0.845,-0.613 1.634,-0.67 2.403,0.053 0.67,0.63 1.323,1.282 1.937,1.968 0.692,0.773 1.143,0.899 2.228,0.27 1.51,-0.874 3.499,0.716 3.681,2.585 z"
         id="path12" />
    </g>
  </g>
</svg>
