<?xml version="1.0" encoding="UTF-8" standalone="no"?>
<!-- Created with Inkscape (http://www.inkscape.org/) -->

<svg
   width="325.90656mm"
   height="102.599mm"
   viewBox="0 0 325.90656 102.599"
   version="1.1"
   id="svg1"
   xmlns="http://www.w3.org/2000/svg"
   xmlns:svg="http://www.w3.org/2000/svg">
  <defs
     id="defs1" />
  <g
     id="layer1"
     transform="translate(50.86089,-194.44829)">
    <g
       id="g9"
       transform="matrix(-0.19170974,0,0,0.11941086,275.04567,10.461226)">
			<path
   style="fill:#523627"
   d="m 1700,2400 v -859.21 c -0.169,0.07 -0.333,0.152 -0.503,0.219 -38.607,15.319 -77.302,30.41 -115.814,45.968 -10.118,4.087 -20.035,8.646 -30.488,11.847 -10.131,3.102 -19.051,8.536 -24.45,17.781 -7.535,12.9 -18.832,19.238 -32.452,23.262 -15.012,4.435 -28.337,11.834 -37.405,25.602 -4.229,6.422 -11.266,9.014 -18.06,11.507 -13.578,4.982 -24.224,13.763 -32.47,25.55 -4.988,7.129 -11.299,12.094 -19.464,14.804 -7.79,2.586 -13.991,7.241 -17.783,14.806 -2.155,4.299 -5.423,6.132 -10.267,5.495 -13.874,-1.824 -25.557,3.219 -34.668,13.392 -15.452,17.255 -33.768,28.805 -56.179,34.826 -15.46,4.153 -29.745,12.25 -43.282,20.881 -23.423,14.935 -49.669,20.178 -76.149,25.18 -9.917,1.874 -19.831,3.866 -29.364,7.408 -8.292,3.081 -15.315,7.524 -18.962,16.214 -2.817,6.713 -9.353,6.7 -14.997,7.829 -6.286,1.258 -12.77,2.769 -17.411,6.961 -11.688,10.557 -25.894,14.749 -40.3,19.448 -20.834,6.795 -38.171,19.48 -51.67,37.074 -16.221,21.142 -36.758,36.6 -60.077,48.744 -18.556,9.664 -34.898,22.58 -50.707,36.322 -21.409,18.61 -43.577,36.373 -71.837,42.998 -10.78,2.527 -22.065,2.919 -33.144,4.032 -15.556,1.562 -30.204,8.305 -45.966,8.425 -31.105,0.237 -62.273,-0.978 -93.302,0.638 -36.86,1.92 -72.81,8.987 -105.584,27.979 -4.787,2.774 -11.167,2.589 -16.669,4.254 -10.085,3.052 -19.092,8.396 -26.893,15.427 -7.014,6.321 -14.875,7.527 -23.478,5.761 -17.394,-3.571 -33.796,-1.062 -48.83,8.443 -19.951,12.613 -42.73,14.108 -64.916,18.759 -21.025,4.407 -42.628,8.944 -60.522,22.289 -14.333,10.689 -31.381,11.024 -47.575,15.005 -15.025,3.694 -28.338,0.201 -41.662,-6.631 -19.184,-9.837 -38.795,-7.932 -57.895,0.311 -14.7,6.344 -29.705,8.945 -45.636,8.232 C 55.31,2186.584 27.533,2187.354 0,2191.801 V 2400 Z"
   id="path9" />

		</g>
  </g>
</svg>
