<?xml version="1.0" encoding="UTF-8" standalone="no"?>
<!-- Created with Inkscape (http://www.inkscape.org/) -->

<svg
   width="199.26971mm"
   height="74.887032mm"
   viewBox="0 0 199.26971 74.887032"
   version="1.1"
   id="svg1"
   sodipodi:docname="mountains-2.svg"
   inkscape:version="1.4.2 (f4327f4, 2025-05-13)"
   inkscape:export-filename="mountains-2.svg"
   inkscape:export-xdpi="96"
   inkscape:export-ydpi="96"
   xmlns:inkscape="http://www.inkscape.org/namespaces/inkscape"
   xmlns:sodipodi="http://sodipodi.sourceforge.net/DTD/sodipodi-0.dtd"
   xmlns="http://www.w3.org/2000/svg"
   xmlns:svg="http://www.w3.org/2000/svg">
  <sodipodi:namedview
     id="namedview1"
     pagecolor="#ffffff"
     bordercolor="#000000"
     borderopacity="0.25"
     inkscape:showpageshadow="2"
     inkscape:pageopacity="0.0"
     inkscape:pagecheckerboard="0"
     inkscape:deskcolor="#d1d1d1"
     inkscape:document-units="mm"
     inkscape:zoom="0.81126436"
     inkscape:cx="388.89913"
     inkscape:cy="114.01955"
     inkscape:window-width="1366"
     inkscape:window-height="697"
     inkscape:window-x="-8"
     inkscape:window-y="-8"
     inkscape:window-maximized="1"
     inkscape:current-layer="layer1" />
  <defs
     id="defs1" />
  <g
     id="layer1"
     transform="translate(-5.4604165,-204.14584)">
    <g
       id="g9"
       transform="matrix(0.26458333,0,0,0.31247572,69.307432,159.50368)">
      <path
         style="fill:#deaa87"
         d="m 501.68504,267.15254 c -3.219,-1.717 0.20915,-6.10165 -3.03285,-7.71965 -3.178,-1.587 11.16566,-4.67872 7.70966,-5.34272 -5.005,-0.962 0.18272,-5.04157 -4.84728,-5.86557 -9.165,-1.501 -2.3377,28.34039 -10.7547,25.10139 -4.662,-1.794 -0.0951,-11.00915 -4.46013,-12.81515 -0.825,1.298 6.65193,-6.89608 5.44693,-6.66008 -0.694,0.136 6.14408,25.65789 5.45408,25.91589 -3.728,1.393 -6.84914,-34.5084 -10.70114,-33.4134 -4.038,1.147 5.12437,22.10559 1.13337,23.40159 -4.537,1.473 9.76973,3.993 5.35173,5.452 -2.955,0.976 -0.49763,-33.05646 -3.44763,-31.85446 -1.95,0.795 11.45108,2.30293 9.59508,3.29693 -3.768,2.02 -13.63422,6.79864 -17.62922,8.33764 -5.077,1.956 11.76217,6.61465 6.17117,5.65465 -3.2,-0.549 -0.67171,4.85901 -3.57771,3.48601 -2.989,-1.412 6.31644,-8.23229 4.5093,-5.21386 -2.804,-1.446 -3.07628,-10.07415 -6.03728,-11.17815 -2.764,-1.03 4.044,16.7408 1.335,17.5748 -3.314,1.021 -11.21243,-13.71701 -14.39643,-12.23501 -2.436,1.135 1.85115,3.35978 -0.58185,4.42778 -1.878,0.825 12.95695,-9.32358 10.96195,-8.74058 -8.875,2.594 8.53581,9.43672 -0.49319,11.66472 -2.821,0.696 25.9601,-20.09531 23.2251,-21.31631 -2.382,-1.063 -4.327,-2.53 -6.471,-3.968 -5.301,-3.554 -10.681,-6.967 -16.642,-9.352 -8.36,-3.344 -16.567,-7.221 -25.27,-9.634 -6.931,-1.922 -13.565,-6.14 -19.974,-9.373 -7.446,-3.756 -13.735,-9.508 -20.815,-13.804 -3.145,-1.908 -6.544,-3.982 -9.89,-5.508 -3.531,-1.611 -6.616,-3.631 -10.009,-5.474 -4.833,-2.626 -10.05,-5.044 -15.028,-7.388 -4.007,-1.887 -8.574,-3.073 -12.335,-5.433 -3.408,-2.139 -6.803,-3.564 -10.545,-5.063 -4.261,-1.707 -9.103,-2.898 -13.141,-5.046 -5.05,-2.686 -9.399,-3.786 -15.065,-3.669 -2.101,0.044 -4.425,0.382 -6.423,1.092 -1.359,0.483 -2.456,1.228 -3.87,1.657 -1.663,0.504 -2.84,0.862 -4.429,1.634 -6.406,3.109 -13.153,5.482 -19.576,8.612 -4.151,2.023 -8.095,4.417 -12.073,6.721 -3.383,1.959 -7.2,3.01 -10.539,5.046 -6.166,3.759 -12.215,7.397 -18.784,10.575 -6.376,3.085 -12.789,6.105 -19.207,9.145 -10.795,5.113 -20.816,11.07 -31.493,16.304 -4.383,2.148 -8.32,5.631 -12.815,7.307 -2.727,1.017 -7.149,1.134 -10.314,0.716 -3.588,-0.473 -7.53,-2.192 -10.985,-3.917 -1.803,-0.9 -3.789,-1.674 -5.503,-2.729 -1.552,-0.955 -2.685,-2.285 -4.586,-2.592 -4.211,-0.68 -8.832,1.026 -12.637,2.569 -4.93,1.999 -9.394,4.833 -13.864,7.488 -3.279,1.948 -6.447,3.493 -9.983,4.893 -2.146,0.85 -3.795,2.274 -5.911,3.184 -3.908,1.68 -7.661,4.074 -11.719,5.554 -4.267,1.556 -8.537,2.8 -12.888,4.098 -1.732,0.517 -3.537,1.113 -5.452,0.736 -1.958,-0.385 -2.503535,3.37583 -4.284535,2.77283 -1.265,-0.428 -5.551111,12.12524 -4.682126,3.69177 0.106242,-1.03108 -3.429788,2.26811 -4.452788,2.10311 -0.971,-0.157 -3.738252,2.36772 -4.736252,2.11372 -1.089,-0.277 -4.824842,4.28363 -4.452787,0.39985 -2.126,-0.103 -0.746087,4.15117 -2.763087,3.73017 -1.181,-0.246 -3.333394,1.35659 -4.569394,1.12259 -1.113,-0.211 -3.693787,2.56184 -4.896787,2.51084 -12.306,-0.521 -1.60496,9.53503 -12.46596,3.74203 -1.886,-1.006 -8.378363,4.69008 -10.171363,3.60608 -1.158,-0.7 -3.168661,4.58829 -4.352661,3.92929 -2.777,-1.544 -8.538575,4.04728 -11.248575,2.45228 -1.5629999,-0.92 -11.38547242,2.74243 -13.0044724,1.89343 L 0.003,339.818 c 12.681,-0.364 25.65,0.653 38.256,1.678 16.758,1.363 33.297,3.821 50.119,4.498 12.041,0.485 24.018,0.65 36.034,1.61 10.253,0.819 20.479,1.879 30.745,2.508 22.917,1.403 45.878,3.039 68.823,3.838 26.815,0.933 53.707,1.03 80.539,1.275 32.94,0.3 65.903,0.774 98.798,2.746 27.048,1.621 53.984,4.555 80.86,7.965 24.108,3.059 -15.34006,-7.4573 9.00694,-7.4323 0,0 6.8722,17.63359 5.49142,-9.40943 -0.17717,-3.47 -29.48773,-3.89064 0.68827,-9.13564 7.2,-1.252 -4.30566,-6.5175 2.89134,-7.8685 l 0.56692,-47.36279 z"
         id="path4" />
      <g
         id="g8">
        <path
           style="fill:#ffe6d5"
           d="m 319.67,169.147 c 2.203,-1.881 3.786,-4.399 5.932,-6.433 2.707,-2.564 6.385,-4.835 10.23,-6.35 -2.627,-0.716 -5.317,-1.027 -8.399,-0.963 -2.101,0.044 -4.425,0.382 -6.423,1.092 -1.359,0.483 -2.456,1.228 -3.87,1.657 -1.663,0.504 -2.84,0.862 -4.429,1.633 -6.406,3.109 -13.153,5.482 -19.576,8.612 -4.151,2.023 -8.095,4.417 -12.073,6.721 -3.383,1.959 -7.2,3.01 -10.539,5.046 -6.166,3.76 -12.215,7.397 -18.784,10.575 -6.376,3.085 -12.789,6.105 -19.207,9.145 -10.795,5.113 -20.816,11.07 -31.493,16.304 -4.383,2.148 -8.32,5.631 -12.815,7.307 -0.801,0.299 -1.756,0.511 -2.774,0.664 0.224,0.021 0.464,0.033 0.739,0.028 2.61,-0.048 4.106,0.805 6.419,1.377 3.437,0.851 5.143,-0.316 8.439,-1.604 4.002,-1.565 7.92,-3.209 11.857,-4.849 2.745,-1.143 5.423,-1.098 8.135,-2.489 6.717,-3.445 13.336,-10.332 21.096,-10.797 1.299,-0.078 2.781,0.309 4.025,-0.048 1.251,-0.359 2.959,-1.422 4.21,-1.948 2.087,-0.878 3.457,-2.551 5.477,-3.533 1.336,-0.65 2.724,-0.852 4.096,-1.371 2.055,-0.777 3.832,-2.142 5.857,-3.011 2.463,-1.058 5.382,-1.214 7.542,-2.864 1.334,-1.02 2.362,-2.472 3.695,-3.53 2.907,-2.307 5.429,-4.336 8.668,-6.145 7.643,-4.268 16.512,-4.915 24.508,-8.462 3.561,-1.581 6.51,-3.247 9.457,-5.764 z"
           id="path5" />
        <path
           style="fill:#a3c1bf"
           d="m 144.198,217.541 c -4.93,1.999 -9.394,4.833 -13.864,7.488 -3.279,1.948 -6.447,3.493 -9.983,4.893 -2.146,0.85 -3.795,2.274 -5.911,3.184 -3.908,1.68 -7.661,4.074 -11.719,5.554 -3.972,1.449 -7.951,2.628 -11.992,3.831 1.187,-0.212 2.318,-0.545 2.799,-0.671 1.547,-0.406 3.135,0.167 4.655,-0.157 1.655,-0.353 3.379,-0.969 5.006,-1.413 2.131,-0.581 3.89,-1.895 5.905,-2.351 2.768,-0.627 6.167,-0.03 8.795,-1.294 1.211,-0.582 1.894,-1.143 3.155,-1.639 1.231,-0.484 2.482,-0.822 3.69,-1.351 3.104,-1.361 5.261,-2.097 7.565,-4.61 1.461,-1.594 2.854,-2.852 4.729,-3.91 1.764,-0.995 4.232,-1.77 5.847,-2.945 1.883,-1.371 2.865,-3.964 4.79,-5.142 1.807,-1.107 4.168,-1.664 6.215,-2.145 -3.34,0.217 -6.752,1.49 -9.682,2.678 z"
           id="path6" />
      </g>
    </g>
    <path
       style="fill:#d38d5f;stroke-width:0.264583"
       d="m 19.761581,242.42857 c 0.676539,-0.30215 1.386152,-0.57468 2.067718,-0.85937 0.668073,-0.27913 1.585648,-0.42412 2.312194,-0.54107 1.052248,-0.16907 2.106877,-0.28866 3.164152,-0.43339 1.926431,-0.26405 3.351475,-1.49701 5.121008,-2.06666 0.980017,-0.31565 1.926696,-0.73977 2.844535,-1.05754 0.173302,0.22834 0.389202,0.0833 0.642673,0.12489 0.145786,0.0238 0.257704,0.12541 0.402696,0.17092 0.783696,0.245 1.677987,0.41195 2.487877,0.60457 0.848783,0.20188 1.6637,0.49795 2.502694,0.72575 0.953558,0.25903 1.760008,0.70247 2.688696,0.95912 0.620978,0.17171 1.177398,0.56779 1.797318,0.77919 0.4101,0.1397 0.81041,0.30533 1.20068,0.48022 0.79216,0.35534 1.55522,0.69718 2.395,0.96811 1.06733,0.34423 2.29447,0.6649 3.46975,0.4961 0.67257,-0.0966 1.33297,-0.54134 1.94389,-0.78291 0.62839,-0.24844 1.29408,-0.45085 1.91215,-0.71781 0.58949,-0.25453 1.12315,-0.57547 1.74598,-0.76967 0.58103,-0.18124 0.81836,-0.14685 1.38774,0 0.69665,0.17965 1.40362,0.37941 2.07275,0.64029 0.51223,0.19949 1.04113,0.29183 1.55231,0.47969 0.39476,0.14525 0.73236,0.35454 1.15173,0.45693 1.86558,0.45615 3.5687,1.26101 5.46656,1.65312 0.59293,0.1225 1.09749,0.25453 1.67243,0.04 0.50059,-0.18706 0.90963,-0.44503 1.36022,-0.69797 1.11416,-0.62521 2.24525,-1.22555 3.49832,-1.64491 1.75736,-0.58817 3.48271,-1.27027 5.31204,-1.69466 1.45706,-0.33814 2.85168,-1.08003 4.19894,-1.64862 1.56527,-0.66066 2.88713,-1.67269 4.37568,-2.42808 0.66093,-0.33549 1.37557,-0.70062 2.07909,-0.9689 0.74242,-0.28337 1.39092,-0.63871 2.10397,-0.96282 1.016,-0.46196 2.11243,-0.88715 3.15912,-1.29963 0.84244,-0.33206 1.80235,-0.54055 2.592918,-0.95568 0.71649,-0.37624 1.43007,-0.62706 2.21668,-0.89059 0.89588,-0.3003 1.91373,-0.50985 2.76251,-0.88767 1.06151,-0.47255 1.97591,-0.66596 3.1668,-0.64532 0.44159,0.008 0.93028,0.0672 1.35044,0.19208 0.28548,0.0849 0.5162,0.2159 0.81332,0.29131 0.34978,0.0886 0.5969,0.15161 0.93107,0.28734 1.34673,0.54689 2.7649,0.9644 4.11507,1.515 0.87259,0.35587 1.70153,0.77708 2.53788,1.18216 0.71094,0.34449 1.51342,0.52943 2.21536,0.88768 1.29619,0.66146 2.56778,1.30122 3.94864,1.86028 1.34038,0.54266 2.68843,1.07395 4.03754,1.60867 2.26907,0.89932 4.37568,1.94733 6.62014,2.86808 0.92128,0.37783 1.7489,0.99034 2.69372,1.28535 0.57335,0.17886 1.50284,0.19949 2.16826,0.12594 0.75407,-0.0833 1.58274,-0.38576 2.30929,-0.68897 0.37914,-0.15823 0.79639,-0.29449 1.15675,-0.47996 0.32624,-0.16801 0.56436,-0.4019 0.96415,-0.45588 0.88529,-0.11959 1.85658,0.18045 2.65641,0.45191 1.03638,0.35163 1.97485,0.85011 2.91439,1.3171 0.68924,0.34263 1.35519,0.61436 2.09867,0.86069 0.45112,0.14949 0.79772,0.40005 1.24275,0.56012 0.82153,0.29554 1.61052,0.71649 2.46354,0.97711 0.89693,0.27358 1.79467,0.49265 2.70933,0.72099 0.36407,0.0908 0.74348,0.19579 1.14618,0.12938 0.41142,-0.0677 0.58578,-0.35349 0.96017,-0.45958 0.2659,-0.0754 0.51144,0.0138 0.77576,-0.0238 0.21484,-0.0304 0.36327,-0.14949 0.57838,-0.17859 0.20399,-0.0278 0.36856,0.0175 0.57837,-0.027 0.22887,-0.0487 0.32915,-0.11906 0.57838,-0.12911 0.44689,-0.018 0.72285,-0.0926 1.14697,-0.16643 0.24845,-0.0434 0.52203,0.0143 0.78185,-0.027 0.23389,-0.037 0.4191,-0.12277 0.67177,-0.13177 2.58683,-0.0915 4.89585,-0.74109 7.17894,-1.76001 0.39661,-0.177 0.68871,-0.47148 1.06548,-0.66198 0.24342,-0.12303 0.517,-0.19024 0.76623,-0.30613 0.58367,-0.27146 1.07977,-0.65934 1.64942,-0.9398 0.32861,-0.16192 0.66542,-0.31538 1.00568,-0.46487 v 22.22077 c -2.66568,-0.064 -5.39195,0.11483 -8.04201,0.29527 -3.52267,0.23972 -6.99956,0.67204 -10.53571,0.79111 -2.53127,0.0852 -5.04905,0.1143 -7.57476,0.2831 -2.15529,0.1442 -4.30477,0.33047 -6.46297,0.44106 -4.81754,0.24686 -9.64407,0.53472 -14.46742,0.67522 -5.63695,0.16404 -11.29004,0.18124 -16.93042,0.2241 -6.92441,0.0529 -13.853848,0.136 -20.768468,0.48287 -5.6859,0.28522 -11.34798,0.80115 -16.99789,1.40123 -5.06783,0.53816 -10.12296,1.08162 -15.24106,1.08585 -5.69225,0.005 -11.34904,-0.31777 -17.004773,-0.85752 -6.398154,-0.61039 -12.75027,-1.58194 -19.093653,-2.50454 -1.513417,-0.22014 -3.027892,-0.44847 -4.540514,-0.68607 v -20.69835 z"
       id="path9" />
    <g
       id="g15"
       transform="matrix(0.26458333,0,0,0.26458333,4.156133,167.26812)">
      <path
         style="fill:#a05a2c"
         d="m 750,254.941 c -2.889,-1.431 -5.787,-2.84 -8.722,-4.172 -6.551,-2.974 -12.322,-5.607 -19.481,-6.861 -5.523,-0.967 -10.589,-3.246 -16.025,-4.61 -2.905,-0.729 -5.857,-1.449 -8.681,-2.087 -3.469,-0.784 -6.856,1.932 -9.87,3.288 -4.17,1.876 -8.125,4.291 -12.325,6.135 -3.821,1.678 -6.831,3.948 -10.468,5.897 -2.831,1.518 -5.663,2.634 -8.362,4.424 -5.726,3.795 -12.322,6.26 -18.315,9.578 -13.13,7.27 -26.169,14.785 -39.408,21.894 -6.3,3.383 -12.412,7.153 -18.86,10.268 -6.125,2.959 -12.904,5.584 -18.673,9.165 -6.125,3.802 -12.241,7.205 -18.961,9.882 -5.381,2.144 -10.743,4.848 -16.294,6.442 -8.391,2.409 -17.264,7.631 -26.147,4.574 -3.445,-1.186 -7.325,-1.722 -10.584,-3.323 -2.709,-1.331 -5.409,-2.557 -8.168,-3.797 -5.918,-2.658 -12.264,-3.852 -18.373,-5.96 -4.305,-1.486 -9.093,-2.763 -12.981,-5.276 -1.711,-1.106 -2.316,-2.551 -4.197,-3.462 -1.686,-0.816 -3.581,-1.727 -5.316,-2.41 -4.266,-1.679 -8.199,-4.005 -12.472,-5.702 -3.66,-1.453 -7.452,-2.391 -11.143,-3.789 -3.066,-1.162 -6.182,-2.534 -9.322,-3.47 -2.251,-0.671 -4.603,-0.41 -6.959,-0.426 -5.854,-0.039 -11.435,2.681 -16.958,4.55 -4.369,1.479 -8.683,3.615 -12.858,5.565 -2.448,1.143 -5.083,1.85 -7.563,2.908 -2.479,1.058 -4.555,2.834 -6.976,3.98 -10.401,4.924 -20.96,9.114 -31.589,13.515 -2.441,1.01 -4.673,2.3 -7.032,3.437 -1.95,0.94 -4.169,1.253 -6.19,2.016 -3.072,1.159 -6.101,2.574 -9.178,3.489 -2.793,0.83 -5.602,1.221 -8.077,0.002 -2.004,-0.987 -3.745,-2.238 -6.014,-2.887 -6.355,-1.819 -12.153,-4.907 -18.428,-6.974 -3.691,-1.215 -7.402,-2.04 -11.051,-3.184 -2.773,-0.87 -5.575,-2.622 -8.302,-3.715 -5.144,-2.061 -10.952,-4.248 -15.338,-7.658 -2.754,-2.142 -5.075,-3.515 -8.289,-4.954 -1.061,-0.475 -2.07,-1.323 -3.176,-1.653 -1.101,-0.329 -2.119,-0.002 -3.21,-0.145 -0.842,-0.11 -1.528,-0.643 -2.296,-0.777 -0.755,-0.131 -1.15,0.368 -1.787,0.31 -1.594,-0.145 -3.042,-0.509 -4.665,-0.498 -2.637,0.017 -4.837,0.115 -7.303,-0.681 -2.712,-0.876 -5.345,-1.752 -8.029,-2.75 -3.271,-1.216 -5.632,-3.188 -8.735,-4.609 -3.511,-1.608 -6.907,-3.441 -10.038,-5.732 -1.77,-1.294 -3.639,-1.666 -5.526,-2.677 -1.666,-0.892 -3.014,-2.079 -4.783,-2.811 -8.559,-3.545 -17.305,-7.15 -26.199,-9.852 -4.341,-1.319 -8.598,-2.897 -12.813,-4.586 -3.539,-1.418 -7.163,-3.599 -10.806,-4.632 -3.464,-0.982 -6.866,-1.171 -10.29,-2.246 -2.299,-0.722 -4.519,-2.238 -6.882,-2.554 -2.419,-0.323 -5.072,0.787 -7.338,1.396 -2.374,0.638 -4.49,1.847 -6.858,2.532 -6.693,1.937 -13.832,3.879 -20.407,6.371 -4.916,1.864 -9.75,3.886 -14.468,6.241 -2.133,1.065 -4.229,2.232 -6.386,3.245 -2.391,1.123 -4.934,1.266 -7.372,2.211 -3.202,1.242 -6.223,2.941 -9.416,4.175 -3.023,1.168 -6.093,1.689 -8.97,3.21 -5.23,2.765 -10.894,4.439 -16.087,7.305 -0.738,0.407 -1.473,0.821 -2.209,1.231 v 173.53 c 7.833,0.318 15.674,0.431 23.516,0.335 39.051,-0.478 52.791118,2.61387 91.82112,2.11687 21.547,-0.274 52.09786,-2.5663 73.49786,-0.6293 18.564,1.68 52.88734,1.98106 71.40934,4.09606 26.576,3.034 43.09435,-3.06783 69.87335,-2.57483 68.11561,-1.80572 29.00101,0.30963 86.77319,2.17222 23.48,-1.929 49.23132,3.67694 72.67032,1.27794 31.578,-3.232 61.79654,1.8352 93.32054,-1.8908 28.969,-3.424 57.93,-1.54171 86.69,-6.43871 27.601,-4.7 51.65542,6.82287 79.29542,2.33187 L 750.002,254.941 Z"
         id="path10" />
      <g
         id="g14">
        <path
           style="fill:#502d16"
           d="m 693.606,249.706 c 3.346,-3.655 6.508,-7.391 9.954,-10.953 -2.179,-0.537 -4.36,-1.065 -6.469,-1.541 -3.469,-0.784 -6.856,1.932 -9.87,3.288 -4.17,1.876 -8.125,4.291 -12.325,6.135 -3.821,1.678 -6.831,3.948 -10.468,5.897 -2.831,1.518 -5.663,2.634 -8.362,4.424 -5.726,3.795 -12.322,6.26 -18.315,9.578 -13.13,7.27 -26.169,14.785 -39.408,21.894 -6.3,3.383 -12.412,7.153 -18.86,10.268 -6.125,2.959 -12.904,5.584 -18.673,9.165 -6.125,3.802 -12.241,7.205 -18.961,9.882 -5.381,2.144 -10.743,4.848 -16.294,6.442 -4.446,1.276 -9.028,3.334 -13.675,4.54 0.387,0.127 0.83,0.695 1.032,0.738 1.727,0.368 3.575,-0.168 5.296,0.16 1.691,0.322 3.07,1.6 4.522,2.456 3.178,1.871 5.074,0.446 8.256,-0.992 6.12,-2.765 11.378,-7.122 17.241,-9.897 11.117,-5.261 25.3,-3.753 33.584,-14.52 8.601,-11.18 23.496,-9.079 35.22,-13.648 4.333,-1.689 7.07,-4.807 10.742,-7.563 4.663,-3.499 8.981,-7.524 13.862,-10.72 5.662,-3.707 11.87,-5.916 18.294,-7.9 7.952,-2.456 15.211,-6.129 22.818,-9.451 4.437,-1.938 7.586,-4.105 10.859,-7.682 z"
           id="path11" />
        <path
           style="fill:#784421"
           d="m 263.922,324.163 c 1.215,0 2.5,-0.107 3.708,-0.021 1.014,0.072 1.478,0.551 2.221,0.731 1.673,0.406 2.917,0.013 4.392,-0.92 0.4,-0.253 0.796,-0.517 1.193,-0.778 -2.107,-0.868 -4.227,-1.711 -6.406,-2.428 -3.691,-1.215 -7.402,-2.04 -11.051,-3.184 -2.773,-0.87 -5.575,-2.622 -8.302,-3.715 -5.144,-2.061 -10.952,-4.248 -15.338,-7.658 -2.754,-2.142 -5.075,-3.515 -8.289,-4.954 -1.061,-0.475 -2.07,-1.323 -3.176,-1.653 -1.101,-0.329 -2.119,-0.002 -3.21,-0.145 -0.842,-0.11 -1.528,-0.643 -2.296,-0.777 -0.755,-0.131 -1.15,0.368 -1.787,0.31 -1.594,-0.145 -3.042,-0.509 -4.665,-0.498 -2.637,0.017 -4.837,0.115 -7.303,-0.681 -0.894,-0.289 -1.772,-0.583 -2.654,-0.876 0.199,0.844 0.242,1.848 0.798,2.507 0.716,0.847 1.634,1.27 2.725,2.017 1.807,1.237 2.341,1.682 4.633,1.627 2.022,-0.048 3.138,0.133 4.79,0.695 3.457,1.176 6.31,1.852 7.601,5.685 0.929,2.759 1.139,4.502 3.204,6.434 0.626,0.586 0.998,1.292 1.58,1.888 1.214,1.242 2.443,1.82 3.945,2.724 1.928,1.159 2.866,1.796 5.275,1.859 1.587,0.041 3.184,-0.043 4.772,-0.024 2.368,0.027 4.297,-0.3 6.504,-1.162 2.029,-0.793 2.39,-0.702 3.834,0.914 2.847,3.185 3.974,3.345 8.025,2.29 1.659,-0.436 3.564,-0.208 5.277,-0.207 z"
           id="path12" />
        <path
           style="fill:#784421"
           d="m 6.394,303.09 c 3.579,-2.593 7.88,-4.634 11.945,-6.67 6.341,-3.176 11.232,-8.361 17.201,-11.901 3.13,-1.856 5.968,-2.896 9.601,-3.515 1.924,-0.328 3.401,-0.026 5.299,-0.845 1.937,-0.836 3.81,-2.252 5.482,-3.643 2.641,-2.196 5.168,-4.802 8.021,-6.719 2.851,-1.915 6.246,-2.425 9.474,-3.391 1.479,-0.443 3.04,-1.461 4.539,-2.115 1.507,-0.658 2.979,-0.913 4.382,-1.81 3.39,-2.167 6.418,-2.529 10.293,-3.465 2.818,-0.68 6.104,-1.321 8.402,-3.31 -0.503,-0.162 -1.009,-0.295 -1.523,-0.363 -2.419,-0.323 -5.072,0.787 -7.338,1.396 -2.374,0.638 -4.49,1.847 -6.858,2.532 -6.693,1.937 -13.832,3.879 -20.407,6.371 -4.916,1.864 -9.75,3.886 -14.468,6.241 -2.133,1.065 -4.229,2.232 -6.386,3.245 -2.391,1.123 -4.934,1.266 -7.372,2.211 -3.202,1.242 -6.223,2.941 -9.416,4.175 -3.023,1.168 -6.093,1.689 -8.97,3.21 -5.23,2.765 -10.894,4.439 -16.087,7.305 -0.738,0.407 -1.473,0.821 -2.209,1.231 v 12.753 c 2.274,-0.579 4.453,-1.517 6.395,-2.923 z"
           id="path13" />
        <path
           style="fill:#784421"
           d="m 353.275,317.925 c 3.42,0.658 6.475,2.181 9.947,1.048 3.096,-1.01 5.675,-3.189 8.237,-5.127 2.592,-1.961 5.491,-4.742 8.366,-6.157 2.211,-1.088 4.607,-0.867 6.846,-1.838 4.154,-1.802 7.766,-4.917 11.387,-7.574 2.702,-1.983 5.053,-4.612 7.57,-6.978 -1.874,-0.308 -3.802,-0.143 -5.735,-0.156 -5.854,-0.039 -11.435,2.681 -16.958,4.55 -4.369,1.479 -8.683,3.615 -12.858,5.565 -2.448,1.143 -5.083,1.85 -7.563,2.908 -2.479,1.058 -4.555,2.834 -6.976,3.98 -10.401,4.924 -20.96,9.114 -31.589,13.515 -2.441,1.01 -4.673,2.3 -7.032,3.437 -1.95,0.94 -4.169,1.253 -6.19,2.016 -3.072,1.159 -6.101,2.574 -9.178,3.489 -1.065,0.316 -2.131,0.567 -3.181,0.691 0.158,0.273 0.344,0.519 0.594,0.705 3.059,2.281 11.85,-1.691 14.778,-3.015 0.749,-0.339 1.326,-0.939 2.151,-1.006 0.619,-0.05 0.711,0.677 1.408,0.82 2.132,0.439 4.444,-0.451 6.471,-0.971 5.159,-1.322 9.995,-3.212 14.855,-5.249 5.193,-2.175 8.71,-5.796 14.65,-4.653 z"
           id="path14" />
      </g>
    </g>
  </g>
</svg>
